<svg width="2343" height="1163" viewBox="0 0 2343 1163" fill="none" xmlns="http://www.w3.org/2000/svg">
<rect width="2343" height="1163" fill="transparent"/>
<path d="M1076.53 868.231C1191.67 854.105 1311.36 822.755 1425.04 782.056C1456.86 770.791 1488.44 758.929 1519.25 747.065C1536.54 740.385 1536.38 743.42 1541.36 741.813C1554.92 737.415 1561.61 731.109 1571.29 727.368C1618.33 709.144 1661.93 690.782 1707.64 671.544C1754.73 651.604 1736.28 669.358 1753.29 663.977C1786.66 653.288 1755.01 655.325 1766.43 647.311C1801.07 632.132 1836.22 616.906 1870.73 601.546C1872.54 600.74 1874.33 599.939 1876.1 599.142C1874.45 600.184 1872.77 601.231 1871.08 602.28C1864.55 606.363 1857.87 610.475 1851.03 614.606C1858.71 611.068 1868 607.109 1872.73 605.686C1876.31 604.588 1877.46 604.856 1873.69 607.679C1871.99 608.969 1869.23 610.805 1865.03 613.365C1868.44 612.222 1871.68 611.196 1874.9 610.171C1877.68 609.267 1880.46 608.354 1883.31 607.364C1883.08 602.981 1910.09 588.988 1911.38 585.456C1912.75 582.01 1897.76 590.389 1897.84 590.079C1897.83 587.214 1960.45 557.784 1964.51 554.924C1976.25 548.766 1969.1 559.196 1978.38 552.999C1994.19 542.068 1977.79 540.75 2006.84 537.325C2012.48 527.676 2014.54 529.135 2024.78 521.359C2026.1 520.332 2023.45 519.143 2023.99 518.619C2037.37 504.846 2029.24 518.034 2029.53 518.135C2033.85 520.528 2047.92 505.112 2050.94 502.238C2066.01 489.501 2076.58 476.785 2086.06 460.883C2099.91 438.836 2107.34 412.955 2098.52 383.901L2101.17 387.769C2097.73 384.764 2094.03 381.871 2090.06 379.1C2080.21 370.894 2043.45 357.283 2031.41 353.55C2019.74 349.284 2027.02 348.115 2021.11 344.851C2008.87 349.541 1999.41 347.893 1977.15 338.292C1972.03 340.295 1970.17 340.101 1967.09 339.159L1967.38 339.209C1964.61 338.461 1960.83 337.117 1952.85 336.637C1938.83 335.679 1914.22 340.543 1898.98 333.856C1916.76 335.59 1915.08 332.571 1935.11 332.688C1938.01 332.72 1952.7 333.977 1967.91 335.768L1967.72 335.736C1987.5 338.563 2008.07 342.009 2006.01 338.205C2004.08 334.554 1980.76 332.38 1980 331.75C1975.48 327.595 1989.04 326.156 2000.05 330.074C1997.1 330.073 1993.58 329.978 1990.41 329.974C2014.76 339.491 2001.06 320.489 2016.97 338.312C2018.89 340.528 2017.55 341.949 2020.92 344.684C2021.9 344.197 2017.67 341.181 2021.81 341.97C2026.06 342.772 2032.83 348.367 2034.83 345.991C2037.84 342.451 2020.2 339.019 2018.95 338.535C2018.93 338.556 2018.91 338.577 2018.89 338.597C2007.95 333.401 2032.06 339.544 2033.31 339.679C2041.49 339.487 2037.01 335.869 2048.93 337.597C2055.78 338.52 2071.74 345.744 2077.72 348.364C2083.74 350.837 2075.5 344.631 2079.63 346.159C2083.8 347.702 2087.99 351.578 2092.74 353.763C2094.78 354.694 2095.81 352.747 2096.8 353.243C2107.28 358.797 2098.31 358.434 2107.17 364.212C2109.08 365.502 2112.71 367.565 2116.2 369.514C2117.68 370.791 2120.41 374.634 2120.98 376.506C2124.74 383.484 2128.56 390.131 2126.39 378.893C2129.17 386.605 2131.13 394.701 2132.2 403.094C2132.4 397.719 2131.98 392.153 2131.58 386.89C2133.81 402.665 2137.45 409.969 2137.33 420.385C2136.96 430.869 2130.94 438.907 2130.08 449.789C2128.73 461.454 2132.44 453.866 2135.49 441.422C2138.71 429.03 2138.7 411.76 2138.76 407.971C2139.02 404.933 2142.88 416.369 2142.77 418.246C2142.95 426.338 2139.05 435.195 2137.89 440.92C2134.49 457.593 2132.09 469.008 2126.88 482.005C2125.94 484.455 2124.7 487.379 2123.18 490.477C2093.22 552.246 2029.29 593.036 1984.37 620.711C1967.1 631.015 1954.97 633.156 1947.04 637.505C1928.94 647.308 1928.06 651.398 1912.02 659.554C1908.69 661.237 1905.08 662.971 1901.26 664.741C1878.81 675.117 1850.64 685.988 1833.29 693.484C1819.38 699.508 1808.17 708.178 1804.61 709.9C1755.15 733.978 1694.02 760.954 1652.04 778.86C1632.32 787.295 1621.52 787.912 1617.47 789.723C1600.07 797.468 1605.96 798.331 1591.55 803.938C1583.77 806.956 1581.2 804.826 1580.12 805.142C1570.65 807.956 1570.28 812.245 1563.19 815.237C1526.16 830.845 1489.14 842.977 1451.43 855.799C1447.61 857.097 1443.82 858.391 1440.04 859.686C1437.03 860.713 1436.74 859.012 1434.8 859.784C1426.52 863.112 1431.31 864.284 1422.61 867.485C1404.44 874.148 1385.39 879.941 1365.64 885.71C1363.68 886.281 1362.16 884.471 1357.73 885.826C1353.3 887.176 1350.44 890.212 1343.43 892.171C1324.97 897.329 1306.07 900.048 1286.41 905.019C1283.16 905.843 1279.79 909.428 1274.87 910.635C1259.48 914.452 1236.12 917.418 1222.84 920.157C1179.04 929.315 1138.52 937.637 1096.88 943.232C1087.1 944.54 1078.13 943.194 1073.04 943.752C1071.43 943.929 1070.22 944.104 1069.3 944.28C1063.67 945.348 1068.85 946.463 1058.87 947.625C965.133 958.294 870.966 962.599 775.61 962.871C774.393 962.872 773.186 962.873 771.988 962.874C734 962.387 690.762 966.94 646.603 959.279C641.376 958.217 637.063 956.841 633.355 955.328C626.844 952.311 623.766 949.636 616.328 947.322C597.813 941.494 593.243 944.351 573.474 937.979C557.721 932.836 541.289 922.289 525.141 915.704C508.987 909.018 499.894 909.337 481.205 900.194C465.816 892.617 445.727 878.475 429.807 866.078C414.839 854.502 399.906 840.619 387.773 821.784C344.08 736.557 336.601 655.026 362.324 566.836C380.282 505.069 420.421 432.796 478.114 390.534C488.167 382.625 498.669 375.055 509.504 367.864C547.859 342.461 589.563 315.281 633.413 295.774C638.615 293.506 632.641 300.779 648.448 291.892C656.985 287.211 667.831 278.12 689.017 269.301C710.161 260.561 732.329 253.213 755.083 247.565C860.278 221.036 972.045 210.272 1078.55 201.428C1080.98 201.224 1083.43 201.02 1085.88 200.816C1243.63 188.149 1405.48 168.564 1550.98 181.379C1585.88 184.472 1619.86 189.411 1652.56 196.879C1660.9 198.778 1656.42 208.389 1651.5 211.147C1646.86 209.235 1642.63 206.955 1637.74 204.794C1631.75 216.812 1632.84 213.686 1610.33 212.779C1596.47 212.214 1607.65 217.252 1600.17 218.761C1590.68 220.71 1545.78 226.961 1554.34 218.967C1553.3 219.482 1552.29 219.99 1551.27 220.494C1549.64 221.354 1548.01 222.203 1546.31 223.065C1513.72 224.507 1482.18 226.764 1450.38 229.435C1444.92 229.901 1444.59 232.393 1438.99 232.864C1423.7 234.153 1411.7 232.697 1395.95 233.214C1387.48 233.495 1386.24 236.391 1375.14 236.415C1363.93 236.446 1364.17 232.555 1349 237.097C1359.03 241.741 1314.74 239.193 1299.03 239.961C1296.76 240.059 1278.18 244.968 1268.24 244.788C1258.26 244.611 1243.03 242.327 1227.68 244.503C1220.5 245.525 1216.23 249.104 1208.48 249.62C1203.01 249.984 1196.3 247.241 1189.37 247.429C1182.42 247.612 1167.58 250.826 1164.84 251.012C1154.97 251.683 1165.75 248.996 1159 249.238C1134.83 250.135 1107.73 251.057 1082.44 253.193C1073.4 253.954 1064.7 254.858 1056.38 255.948C1052.5 256.458 1058.11 258.492 1057.6 258.62C1031.16 264.043 1045.21 259.533 1037.73 257.957C1030.54 256.288 979.633 263.062 979.807 267.58C977.653 262.333 966.763 267.899 963.905 268.442C952.558 270.56 954.16 265.576 943.339 268.558C939.407 269.651 947.655 271.713 943.335 272.227C932.519 273.527 922.132 269.872 907.74 271.669C904.229 272.112 903.561 274.531 897.381 275.488C891.294 276.374 865.104 278.291 877.798 280.885C861.583 279.94 858.849 282.598 840.856 286.162C836.365 287.06 829.653 284.694 820.258 287.941C817.035 289.054 817.974 292.478 813.043 293.626C801.839 296.26 790.5 295.177 776.218 298.641C773.787 299.23 771.197 299.891 768.76 300.54C745.132 306.802 721.668 317.101 698.272 326.376C691.259 329.189 691.512 325.115 681.424 329.732C679.925 330.405 669.266 338.98 662.367 342.272C658.172 344.119 636.083 353.763 631.801 356.148C624.693 359.94 625.228 363.66 621.095 365.333C609.189 370.244 615.244 360.59 605.793 374.575C599.466 373.959 592.033 379.127 587.031 376.704C585.409 383.916 576.935 383.435 569.335 390.531C561.731 397.634 560.368 410.691 552.268 403.08C550.583 405.037 545.548 409.56 540.694 413.783C536.305 417.612 532.36 421.141 531.082 422.168C523.549 428.279 525.878 422.817 520.268 427.603C519.3 428.459 521.582 429.191 514.991 434.225C510.206 437.067 481.577 464.266 480.341 466.258C460.383 484.467 488.237 453.784 491.561 448.511C492.734 448.19 493.854 447.93 495.054 447.589C504.552 440.138 496.394 441.311 491.604 444.332C486.784 447.345 481.064 456.117 476.877 458.499C474.78 459.688 471.58 454.846 476.939 450.185C470.52 454.463 476.301 445.754 473.084 446.806C469.109 447.588 446.526 474.236 449.34 476.455C453.178 471.284 458.012 464.933 462.344 460.037C471.653 457.488 469.272 487.016 452.175 501.708C439.619 513.183 448.551 487.206 434.412 524.042C437.211 518.687 439.978 514.404 442.794 509.744C446.557 511.132 438.513 516.786 437.656 521.489C437.24 523.677 445.743 513.054 441.408 523.789C431.923 530.309 433.86 539.76 427.896 555.569C428.618 550.785 429.412 546.015 430.284 541.274C415.564 566.599 439.665 503.348 416.421 555.259C418.638 548.739 421.171 542.398 423.598 535.945C420.363 538.234 416.81 530.858 414.43 533.162C408.14 539.27 405.774 551.208 402.267 560.308C400.729 564.302 400.045 561.252 399.916 561.587C397.811 567.071 400.535 566.638 399.027 571.542C398.526 573.178 397.587 575.56 396.469 578.244C393.251 585.813 389.407 596.104 389.119 598.381C388.018 606.286 395.645 594.489 395.855 595.389C396.828 600.745 392.977 610.236 396.089 610.292C396.813 602.725 399.397 590.86 403.137 580.472C411.378 557.536 419.968 540.312 409.098 582.357C417.286 570.365 421.966 572.518 419.702 586.006C419.231 589.108 418.43 592.846 417.339 597.277C413.223 615.828 413.468 603.229 408.467 612.532C407.517 613.623 402.756 639.734 405.091 641.292C400.308 639.814 395.468 648.44 390.836 642.142C390.1 641.207 391.41 629.834 387.041 633.436C384.821 635.226 379.992 640.783 377.497 639.668C379.111 642.247 380.977 644.887 382.732 647.42C382.641 664.969 381.042 667.368 378.042 677.23C379.422 676.687 384.84 667.658 383.727 681.104C383.674 681.801 381.554 682.51 381.06 689.44C380.23 703.421 380.104 706.62 372.747 696.424C379.717 725.116 373.996 732.509 383.918 761.603C389.985 753.524 384.668 744.271 378.61 717.475C380.287 716.004 382.048 715.167 383.75 713.68C385.823 749.872 383.129 732.492 391.564 751.419C393.439 756.088 400.975 781.632 403.189 771.459C403.585 769.159 398.714 753.671 401.207 754.897C401.525 755.185 408.414 773.499 408.708 775.212C411.234 795.811 393.417 768.878 413.321 805.853C415.627 809.356 418.57 813.322 422.366 817.648C423.526 818.947 425.665 817.94 428.121 820.238C432.756 824.45 430.948 826.387 435.387 829.869C439.954 833.404 447.899 835.598 452.468 843.276C461.346 857.469 428.979 838.386 420.636 822.138C415.073 821.941 433.013 846.436 457.778 863.383C482.039 880.917 510.2 893.408 513.539 894.62C543.121 904.751 495.204 884.965 494.006 881.237C493.43 879.85 499.419 869.873 484.393 870.287C479.859 870.377 492.693 880.859 483.551 877.26C474.379 873.548 479.5 872.412 479 871.863C477.312 869.984 467.723 865.675 466.864 864.5C453.707 846.72 461.252 838.876 475.331 867.258C487.319 870.028 467.437 851.067 481.128 856.363C497.527 862.538 506.443 872.717 508.331 873.96C530.858 887.817 506.696 868.089 534.805 883.425C550.688 891.696 508.073 877.776 545.951 893.181C577.946 905.277 561.717 895.902 566.225 891.047C567.288 889.892 585.162 894.72 561.444 886.444C560.202 887.697 558.18 889.199 556.14 890.001C550.749 886.641 544.358 875.245 541.526 873.711C527.567 866.205 526.519 870.226 520.23 861.8C523.89 869.536 515.524 861.964 511.411 861.143C496.2 857.884 512.433 868.926 485.776 847.519C488.215 851.945 490.478 856.117 493.033 860.419C489.402 858.511 485.747 856.515 482.176 854.475C479.623 846.608 461.699 835.436 480.809 841.298C462.379 827.515 455.414 822.177 448.695 822.124C447.418 822.083 444.647 820.008 441.747 817.17C441.409 818.57 439.469 821.965 438.669 821.822C431.389 820.422 430.826 808.686 434.91 809.382C433.228 807.179 431.99 805.298 431.585 804.652C429.018 800.529 436.656 806.617 434.952 803.003C434.638 802.361 431.819 798.767 429.892 795.519C428.458 793.14 427.334 790.681 427.667 790.394C430.099 788.274 432.802 792.239 432.804 791.965C432.978 791.598 429.242 788.056 423.125 765.984C417.116 766.975 426.347 786.278 418.691 783.666C410.068 780.625 414.1 765.757 405.663 765.701C406.593 764.28 407.513 763.531 408.685 762.241C399.599 744.516 406.478 742.436 406.486 736.418C406.043 724.894 398.719 672.933 399.821 720.597C398.018 713.835 396.71 706.846 395.39 699.999C407.442 697.056 401.922 701.697 402.276 669.052C402.54 661.843 407.841 659.693 401.73 652.565C407.705 653.667 405.27 632.761 406.447 630.876C412.188 619.492 415.399 664.346 405.665 670.657C410.201 678.334 404.572 678.544 405.984 687.304C408.242 699.918 409.44 701.351 407.794 717.029C415.119 730.634 403.299 659.345 415.92 701.841C420.129 714.248 428.061 754.528 446.981 784.863C484.857 837.038 603.075 870.363 654.349 884.811C658.698 885.954 664.846 886.738 669.475 887.16C706.583 889.885 743.559 888.192 775.678 887.936C829.36 886.963 876.469 885.075 939.733 881.181C949.731 880.858 1024.68 873.702 1009.74 881.739C1007.6 882.953 975.428 888.41 1003.71 891.176C997.772 888.591 1013.93 885.039 1015.25 884.564C1041.84 875.331 1031.46 874.229 1060.47 870.348C1064.84 869.745 1070.12 869.061 1076.53 868.231ZM1232.9 901.978C1167.52 914.41 1216.25 908.616 1204.74 921.465C1213.21 919.772 1221.59 918.021 1230.01 916.19C1227.65 916.056 1225.34 915.91 1223 915.762C1222.99 915.764 1222.98 915.766 1222.97 915.768C1226.28 911.19 1229.67 906.574 1232.9 901.978ZM2115.8 355.35C2119.02 356.057 2122.24 356.845 2125.68 357.972C2125.68 357.976 2125.69 357.98 2125.69 357.985C2128.63 360.514 2134.04 368.129 2135.17 371.837C2138.15 382.13 2140.15 393.456 2140.48 404.703C2139.48 403.441 2138.45 402.208 2137.42 401.005C2136.49 391.347 2134.34 381.803 2131.42 373.071C2130.44 369.848 2125.74 363.23 2123.18 361.032C2120.77 359.06 2118.31 357.166 2115.8 355.35ZM413.199 815.017C412.002 811.859 410.963 809.697 409.89 807.992C406.443 802.231 401.929 801.405 398.75 788.106C395.041 791.97 391.613 796.137 388.235 800.429C391.758 807.152 394.66 811.065 397.864 815.491C400.758 819.377 403.676 823.49 408.281 830.032C408.289 827.561 408.306 825.024 408.469 822.611C406.59 820.699 404.582 818.544 402.86 816.486C404.142 811.018 419.436 830.461 413.235 815.05C413.223 815.039 413.211 815.028 413.199 815.017ZM373.916 688.45C373.701 681.468 375.66 654.18 374.046 650.376C366.558 637.222 372.551 715.917 365.226 657.952C364.256 658.21 363.311 657.932 362.353 657.921C361.901 668.692 362.006 679.413 362.605 690.193C366.36 689.31 370.144 689.39 373.916 688.45ZM995.559 937.827C985.327 938.325 936.862 945.074 953.048 948.28C957.831 949.248 979.129 941.37 987.402 940.918C992.761 940.636 987.056 944.57 997.52 942.394C996.922 940.932 996.487 939.29 995.532 937.84C995.541 937.835 995.55 937.831 995.559 937.827ZM1012.79 916.241C1002.39 917.848 991.84 919.563 981.354 921.077C989.372 924.345 1004.31 920.486 1005.71 925.862C1002.86 926.542 1000.02 927.214 997.175 927.885C994.861 926.885 992.571 925.879 990.29 924.87C981.485 928.603 987.084 929.653 970.106 930.134C980.964 937.578 983.364 941.977 1011.59 930.94C1006.51 935.927 1013.1 950.095 1028.21 938.042C1031.02 935.805 1018.3 935.77 1018.14 935.467C1015.84 931.822 1022.56 928.694 1020.13 925.275C1019.04 923.732 1011.41 924.493 1010.05 922.322C1009.42 921.264 1016.38 917.405 1012.79 916.241ZM1035.65 933.582C1032.62 936.243 1044.38 940.595 1053.95 938.379C1068.88 934.922 1044.45 932.431 1035.65 933.582ZM2115.74 355.314C2115.76 355.326 2115.78 355.338 2115.8 355.35C2115.79 355.347 2115.78 355.344 2115.76 355.342C2115.76 355.333 2115.75 355.323 2115.74 355.314ZM375.777 724.248C372.334 716.529 371.071 704.356 368.07 705.622C368.192 701.574 368.357 697.408 368.613 693.372C367.672 693.495 366.733 693.658 365.802 693.781C366.325 705.983 367.438 718.121 369.132 730.238C371.34 728.272 373.589 726.434 375.777 724.248ZM380.042 593.914C384.185 579.133 376.797 590.491 375.649 586.686C374.779 583.758 377.783 575.623 378.069 572.097C378.117 571.03 377.852 570.404 377.035 570.528C376.907 570.892 376.779 571.257 376.652 571.623C373.67 580.185 371.116 589.19 369.111 598.004C372.8 596.253 376.395 595.322 380.049 593.884C380.047 593.894 380.045 593.904 380.042 593.914ZM1492.7 825.396C1483.2 827.987 1485.83 823.542 1469.01 833.868C1469.03 833.863 1469.04 833.858 1469.06 833.853C1487.26 830.005 1510.29 823.775 1528.24 813.933C1515.45 815.235 1507.62 821.283 1492.7 825.396ZM432.36 849.475C437.392 850.538 423.052 834.9 418.212 832.662C409.813 829.432 424.208 848.261 432.36 849.475ZM1844.87 648.547C1854.79 635.004 1825.72 638.924 1800.82 654.735C1798.69 656.099 1816.83 650.461 1812.43 654.23C1812 654.598 1802.54 658.789 1800.63 660.898C1798.77 662.986 1802.3 664.2 1798.96 666.943C1793.05 671.769 1776.35 675.577 1772.39 680.118C1771.86 680.731 1782.73 679.554 1783.38 679.396C1793.87 676.885 1801.39 668.424 1802.8 667.734C1810.47 664.007 1810.78 667.767 1813.08 667.618C1817.35 667.359 1823.2 662.897 1823.69 662.796C1836.63 660.177 1809.7 671.781 1806.55 674.632C1798.37 682.207 1808.62 681.032 1786.14 693.503C1784 694.688 1757.37 706.636 1792.49 694.928C1730.1 732.525 1827.57 684.111 1837.32 677.303C1841.89 674.229 1833.01 674.663 1835.34 671.895C1840.76 665.518 1852.01 659.524 1848.91 655.572C1842.21 647.352 1829.97 660.583 1818.7 663.921C1818.86 661.376 1818.37 659.2 1819.49 656.263C1817.63 660.391 1844.06 649.617 1844.88 648.566C1844.88 648.559 1844.88 648.553 1844.87 648.547ZM1683.53 734.834C1667.45 738.455 1671.06 743.971 1655.95 746.443C1646.2 756.993 1669.82 746.403 1672.71 745.491C1685.91 741.357 1688.18 747.292 1700.28 739.849C1694.35 738.352 1689.22 736.459 1683.53 734.834ZM1813.25 679.312C1804.73 686.897 1822.43 678.618 1823.34 678.884C1834.01 681.317 1780.61 704.608 1813.25 679.312ZM931.375 929.517C925.857 929.635 929.549 932.567 924.75 933.789C919.908 935.035 903.161 933.241 903.652 935.169C904.17 937.129 935.059 940.53 904.391 943.308C905.492 944.355 905.183 945.195 905.741 946.164C914.176 945.752 922.742 945.311 931.175 944.818C926.359 941.935 921.381 938.883 916.789 936.07C921.352 933.28 924.217 936.353 924.469 936.339C924.469 936.335 924.469 936.332 924.468 936.328C933.259 935.551 943.777 929.221 931.375 929.517ZM1361.28 864.546C1360.49 856.534 1350.7 868.792 1345.76 871.29C1340.89 873.779 1332.98 873.061 1336.61 875.532C1345.62 875.342 1361.37 865.457 1361.28 864.537C1361.28 864.54 1361.28 864.543 1361.28 864.546ZM1602.51 769.47C1590.69 776.459 1593.45 777.545 1577.18 781.702C1578.5 783.223 1579.83 784.781 1581.14 786.274C1593.4 781.276 1590.43 776.517 1605.4 772.691C1607.86 772.062 1604.61 778.221 1614.51 772.532C1610.56 771.631 1606.47 770.502 1602.51 769.47ZM1542.7 801.512C1557.15 795.424 1562.84 776.502 1538.75 793.652C1535.18 796.192 1531.84 806.065 1542.7 801.512ZM1074.79 915.95C1070.49 916.41 1067.69 916.75 1066.05 917.017C1063.2 917.479 1063.83 917.721 1066.15 917.888C1070.71 918.225 1081.82 918.205 1085.81 919.007C1076.86 920.444 1070.66 921.373 1066.64 921.99C1057.06 923.443 1059.75 923.172 1066.73 922.741C1076.91 922.132 1096.2 920.929 1099.87 924.44C1107.12 921.189 1120.42 914.075 1104.63 914.938C1098.04 915.28 1100.74 917.272 1100.35 917.318C1088.26 918.369 1089.22 914.38 1074.79 915.95ZM1709.17 723.142C1708.31 723.652 1710.82 725.456 1708.12 727.229C1705.43 729 1698.04 730.217 1698.05 731.999C1698.06 733.795 1711.85 729.109 1715.42 726.21C1719.01 723.293 1717.03 718.54 1709.17 723.142ZM1613.09 757.492C1601.61 764.394 1625.4 765.047 1628.05 763.862C1651.21 753.482 1613.59 760.679 1613.09 757.492ZM1133.3 890.855C1102.69 900.611 1126.86 905.804 1147.61 907.604C1150.07 906.124 1152.56 904.629 1154.96 903.154C1144.17 911.448 1124.26 921.397 1169.84 907.788C1144.15 910.821 1165.17 905.355 1165.24 904.969C1165.96 892.978 1129.46 904.659 1133.32 890.851C1133.31 890.852 1133.31 890.854 1133.3 890.855ZM1749.72 708.101C1762.45 702.351 1794.44 685.466 1777 687.803C1767.92 694.592 1758.82 701.366 1749.72 708.101ZM618.151 902.786C608.308 896.568 598.48 893.393 585.381 888.966C595.723 897.118 587.822 894.879 583.508 894.461C576.935 893.805 591.626 898.856 591.588 899.117C590.016 902.838 580.348 900.295 601.866 907.427C596.117 907.013 590.408 906.581 584.612 906.046C600.981 911.896 604.027 915.595 613.57 922.044C605.809 911.268 617.65 920.303 631.062 920.265C637.708 920.236 623.14 905.981 618.111 902.773C618.124 902.777 618.137 902.781 618.151 902.786ZM1100.64 894.136C1097.6 895.996 1094.91 898.308 1091.98 900.342C1088.58 900.955 1085.17 901.538 1081.76 902.133C1081.18 900.939 1080.66 899.679 1080.01 898.542C1075.46 898.751 1077.44 900.265 1076.12 900.597C1076.12 900.591 1076.11 900.584 1076.11 900.577C1071.69 901.679 1067.86 902.55 1064.4 903.213C1053.03 905.38 1045.57 905.361 1033.7 903.622C1034.1 907.456 1034.5 911.29 1034.91 915.124C1038.27 914.4 1041.68 913.672 1045.05 912.941C1046.63 910.684 1048.22 908.422 1049.79 906.16C1053.86 906.853 1057.87 907.532 1061.94 908.202C1062.87 907.863 1063.87 907.514 1064.87 907.161C1067.16 906.356 1069.5 905.535 1071.33 904.801C1080.83 909.683 1073.62 910.974 1065.43 911.889C1058.95 912.616 1051.87 913.089 1051.95 915.068C1052 916.263 1058.23 916.246 1065.87 915.575C1076.63 914.644 1090.15 912.346 1093.02 910.783C1093.72 910.392 1084.9 903.493 1098.58 905.856C1100.7 906.219 1103.9 923.348 1116.07 907.365C1117.79 905.093 1109.2 895.478 1100.64 894.136ZM970.17 902.481C991.239 912.088 915.777 905.756 948.609 912.601C939.784 918.318 941.442 918.144 951.057 922.017C951.903 922.366 945.573 924.21 946.133 924.349C955.014 926.252 965.422 924.137 965.826 928.658C968.159 928.239 970.36 927.853 972.704 927.425C962.553 923.924 977.927 919.852 983.639 915.738C986.235 913.88 979.907 913.901 982.091 912.283C982.901 911.696 991.748 911.989 991.988 910.46C992.431 907.017 986.546 902.948 977.039 901.216C977.039 901.212 977.038 901.209 977.038 901.206C974.722 901.617 972.499 902.065 970.17 902.481ZM1394.58 827.589C1399.74 832.317 1413.56 829.568 1389.16 840.879C1390.79 841.613 1392.46 842.323 1394.1 843.052C1398.38 841.516 1402.45 840.033 1406.76 838.467C1413.92 816.973 1444.13 827.893 1424.83 821.112C1422.75 820.37 1413.13 825.373 1421.87 818.314C1421.85 818.316 1421.84 818.317 1421.82 818.319C1408.33 824.258 1407.25 826.913 1394.58 827.589ZM1301.98 860.499C1272.72 882.083 1349.15 854.609 1335.08 854.911C1333.85 855.044 1301.16 867.284 1301.98 860.499ZM1554.23 760.341C1540.1 765.831 1541.76 772.648 1544.11 774.411C1546.47 776.181 1555.3 769.873 1556.69 769.73C1561.28 769.28 1552.92 773.604 1558.91 773.106C1560.89 772.953 1586.36 765.19 1587.37 764.427C1592.96 760.307 1581.65 758.766 1583.18 757.419C1588.16 753.029 1597.17 752.51 1597.67 748.985C1598.78 741.458 1586.76 753.891 1584.32 755.014C1576.95 758.397 1576.2 754.73 1570.33 756.351C1564.46 757.966 1561.26 760.631 1556.22 762.398C1554.54 762.986 1554.95 760.073 1554.23 760.341ZM1513.04 792.599C1525.87 781.931 1487.86 790.592 1484 793.321C1472.72 801.545 1506.83 797.778 1513.04 792.599ZM1022.25 914.67C1036.3 909.424 1002.39 909.707 992.912 912.012C994.805 913.466 1017.4 916.507 1022.25 914.67ZM1141.98 889.462C1129.08 892.773 1147.86 898.486 1158.85 896.394C1164.28 889.679 1158.43 891.874 1151.24 892.871C1144.07 893.85 1152.05 886.836 1141.98 889.462ZM1708.17 701.57C1705.51 702.696 1664.92 725.629 1690.1 716.698C1692.06 716.022 1721.42 702.106 1723.32 700.281C1727.13 696.647 1715.05 698.794 1708.17 701.57ZM1202.82 869.564C1197 875.788 1190.17 877.087 1197.66 881.439C1197.67 881.437 1197.68 881.435 1197.68 881.433C1180.56 886.688 1177.58 875.195 1173.87 876.169C1160.93 879.478 1174.91 885.404 1167.12 889.633C1185.91 883.514 1181.43 890.093 1196.16 887.532C1199.48 886.957 1211.9 880.909 1213.37 878.427C1214.84 875.962 1206.83 871.243 1202.82 869.564ZM1767.43 673.54C1752.37 678.351 1742.65 691.459 1762.91 683.647C1772.89 679.782 1776.55 670.627 1767.43 673.54ZM400.805 664.51C398.746 666.84 396.723 669.264 394.745 671.86C394.055 666.207 393.505 660.516 393.118 654.793C393.677 659.326 394.327 663.815 395.074 668.321C395.636 657.613 399.555 652.995 400.804 664.483C400.804 664.492 400.804 664.501 400.805 664.51ZM599.739 371.191C604.845 370.348 609.67 360.125 608.407 360.334C598.766 361.971 592.599 372.396 599.739 371.191ZM999.172 897.931C981.264 898.643 994.38 907.641 1005.45 907.31C998.576 906.007 1009.35 897.495 999.172 897.931ZM491.561 448.511C489.831 448.974 488.099 449.454 486.252 450.067C491.002 447.06 492.304 446.997 491.561 448.511ZM1697.81 696.416C1695.01 696.822 1676.13 704.429 1673.99 706.4C1669.58 710.527 1686.32 709.292 1694.21 703.929C1695.09 703.342 1700.62 696.02 1697.77 696.433C1697.79 696.427 1697.8 696.421 1697.81 696.416ZM405.361 641.352C405.262 641.375 405.171 641.352 405.091 641.292C405.179 641.318 405.272 641.319 405.361 641.352ZM980.016 268.019C979.889 267.877 979.812 267.73 979.807 267.58C979.866 267.721 979.969 267.863 980.016 268.019ZM1562.74 744.793C1552.85 738.465 1540.42 749.027 1553.56 748.816C1554.29 748.791 1561.22 745.398 1562.74 744.793Z" fill="#FCAF45"/>
</svg>
