<svg width="923" height="639" viewBox="0 0 923 639" fill="none" xmlns="http://www.w3.org/2000/svg">
<rect width="923" height="639" fill="transparent"/>
<path d="M704.539 223.935C650.685 264.525 592.523 309.676 537.68 349.065C530.947 353.902 529.719 351.338 527.643 352.447C521.965 355.472 520.892 360.41 517.06 363.012C498.417 375.688 481.373 388.062 463.211 400.627C444.46 413.618 447.811 400.143 440.204 403.317C425.434 409.452 442.729 410.41 439.477 416.11C425.036 426.361 410.178 436.302 395.467 446.205C398.234 442.708 401.027 439.227 403.852 435.794C397.719 440.262 387.766 445.814 396.249 435.461C393.478 436.587 390.763 437.497 387.967 438.671C389.896 442.38 379.279 451.107 379.845 453.769C380.37 456.457 386.043 451.296 386.152 451.484C387.061 453.158 376.898 460.009 368.712 465.184C363.502 468.501 359.171 471.073 358.427 471.499C353.125 474.569 354.09 467.278 350.285 470.732C343.838 476.607 354.848 481.076 336.97 477.746C336.198 484.126 334.268 482.69 329.498 486.16C328.872 486.619 330.975 488.254 330.753 488.521C324.951 495.725 327.3 487.591 327.119 487.402C323.596 484.538 317.474 492.088 315.536 493.136C292.422 505.322 275.602 514.754 254.7 531.887C250.139 535.591 238.349 549.036 233.84 552.427C229.338 555.763 229.227 551.409 226.075 552.345C228.118 561.152 225.651 564.738 214.748 568.775C216.129 575.473 213.181 571.962 208.924 578.197C205.358 583.401 203.231 595.895 194.387 597.285C199.993 591.712 197.358 590.502 202.05 582.793C203.472 580.112 224.603 557.859 219.049 555.523C216.046 554.268 210.84 563.545 210.18 563.466C206.255 562.922 207.378 556.009 211.996 553.301C211.577 554.651 210.938 556.245 210.461 557.667C221.335 552.321 204.915 546.987 220.59 550.386C222.52 550.803 223.462 552.295 225.926 552.336C225.671 551.566 222.888 551.777 223.97 550.259C225.079 548.707 230.082 548.618 228.443 546.194C226.118 542.598 221.588 549.321 221.017 549.556C221.03 549.579 221.044 549.601 221.057 549.624C215.727 551.762 223.38 543.845 223.518 543.186C224.126 538.962 221.055 539.12 223.294 533.986C224.542 531.081 230.558 526.429 232.289 524.299C234.02 522.145 229.55 523.576 230.611 522.014C231.667 520.458 234.443 519.954 235.671 518.166C236.207 517.383 234.684 515.778 234.965 515.417C238.001 511.514 238.744 517.048 241.769 513.944C243.769 511.882 247.978 502.418 242.255 505.788C244.286 503.386 246.441 501.05 248.531 498.755C246.61 499.563 244.815 500.547 242.817 501.281C247.947 498.155 247.523 493.508 250.092 490.902C252.701 488.266 258.199 489.527 259.833 485.213C263.41 475.945 248.42 491.647 245.88 492.802C244.858 493.254 245.607 487.877 245.974 487.426C247.711 485.326 251.938 485.04 253.415 483.621C258.865 478.383 260.263 472.795 265.309 467.668C282.582 450.125 305.087 429.566 322.634 414.741C323.968 413.614 325.306 412.696 326.618 411.928C331.614 409.038 336.198 408.47 338.597 406.476C345.401 400.812 344.418 397.404 350.395 392.513C359.529 385.034 374.108 377.368 382.271 371.85C387.807 368.113 390.722 361.85 392.077 360.709C410.627 344.983 434.18 327.096 450.18 314.888C457.717 309.133 463.441 309.285 464.941 308.015C471.378 302.572 467.717 301.508 473.332 297.64C476.364 295.549 478.688 297.475 479.149 297.269C483.195 295.42 481.56 291.846 484.181 289.705C499.255 277.39 515.709 268.12 531.302 256.839C532.43 256.026 533.358 257.455 534.029 256.841C536.888 254.167 533.834 253.115 536.962 250.518C543.435 245.125 550.66 240.246 557.996 235.158C558.727 234.65 560.36 236.156 561.985 234.937C563.61 233.716 563.599 231.134 566.209 229.318C573.055 224.552 581.061 221.641 588.248 216.421C589.428 215.56 589.294 212.37 591.054 211.086C596.603 207.034 606.118 202.887 610.931 199.391C626.622 187.971 640.048 176.048 654.664 165.078C658.138 162.478 662.533 162.233 664.406 160.902C668.552 157.953 664.116 158.397 668.191 155.333C678.559 147.543 688.939 139.874 699.352 132.212C722.382 115.172 746.462 98.0031 767.082 80.9506C768.789 79.5093 770.687 77.773 771.834 76.547C772.148 76.2162 772.375 75.9546 772.523 75.7616C772.689 75.5524 772.74 75.4393 772.57 75.5737C772.352 75.7913 772.033 75.9711 770.701 77.8545C770.206 78.5948 768.894 80.4462 767.513 83.9938C766.82 87.3935 760.642 97.4516 771.31 115.549C782.553 130.31 792.146 129.48 794.537 130.393C798.285 130.928 799.511 130.778 800.635 130.777C801.759 130.735 802.203 130.689 802.575 130.663C802.934 130.635 803.116 130.623 803.181 130.633C803.436 130.666 802.575 130.946 801.712 131.276C799.833 131.965 797.296 132.914 794.705 133.871C789.321 135.862 783.893 137.817 778.864 139.314C772.773 141.13 770.661 138.513 766.361 140.032C758.732 142.776 758.832 147.097 751.011 150.525C744.788 153.261 736.004 152.362 729.489 155.3C722.98 158.243 721.458 163.165 714.133 166.803C708.09 169.801 698.733 171.939 692.113 175.239C667.664 187.416 643.583 200.135 619.562 213.096C584.288 232.15 548.919 251.685 512.589 270.767C491.037 282.087 468.213 296.478 444.763 306.419C442.558 307.352 443.62 302.19 437.595 306.876C434.36 309.402 431.277 315.2 423.401 320.358C393.196 340.137 360.185 358.493 328.48 378.365C311.009 389.32 293.931 400.706 277.89 412.943C228.334 450.768 187.345 501.608 138.631 533.457C120.425 545.497 99.642 555.448 79.5715 559.678C78.8655 559.685 78.1836 559.09 77.9619 557.391C77.9556 556.891 77.8695 556.463 77.8955 555.801C77.9197 555.14 77.8747 554.489 77.6725 554.106C77.2933 553.275 76.2007 553.875 75.1271 554.16C73.0949 554.52 71.9656 553.362 71.1338 552.357C70.3148 551.308 69.8654 550.176 69.7315 549.35C72.4334 549.411 75.3332 549.869 78.3475 550.078C72.2061 539.476 73.937 542.056 82.0733 536.251C87.0998 532.693 80.0208 532.118 81.5446 528.833C83.4524 524.616 94.6487 507.056 96.9595 515.556C97.0399 513.667 96.9681 511.987 97.0187 510.164C100.879 506.221 104.621 502.243 108.329 498.19C114.28 491.668 120.187 484.984 126.03 478.286C127.639 476.431 126.135 474.445 127.861 472.5C132.4 467.336 137.619 465.169 142.927 460.53C145.75 458.064 144.425 455.435 148.388 452.475C152.419 449.471 154.705 452.608 157.435 445.031C150.911 443.993 168.622 434.423 173.999 429.868C174.747 429.23 178.693 420.606 182.531 418.28C186.386 415.923 193.439 414.023 198.001 408.555C200.123 406.002 199.613 402.111 202.315 399.823C204.195 398.231 208.36 398.883 210.948 397.097C213.491 395.34 217.438 389.29 218.391 388.532C221.857 385.749 219.193 390.383 221.698 388.655C233.798 380.26 248.286 371.107 259.235 361.51C260.581 360.333 257.118 359.727 257.261 359.522C265.344 349.961 261.983 356.383 265.94 356.32C269.761 356.234 288.018 341.961 285.697 338.29C289.415 342.355 291.244 336.006 292.26 335.109C294.592 333.05 296.197 333.776 297.808 333.864C298.911 333.929 300.015 333.693 301.373 332.037C302.6 330.55 297.817 329.96 299.512 328.909C303.721 326.302 310.257 328.05 315.978 324.795C317.367 324.007 316.499 321.834 318.873 320.326C321.251 318.809 332.607 314.575 325.406 313.594C333.5 312.831 333.52 310.268 340.524 305.766C342.311 304.625 346.585 306.217 349.708 302.805C350.764 301.649 348.781 298.704 350.682 297.426C355.001 294.512 361.144 294.9 366.77 291.441C377.318 284.966 387.05 275.707 398.474 269.624C401.579 267.974 402.731 271.462 407.088 268.822C407.721 268.425 411.301 262.558 414.451 260.949C416.344 259.975 426.835 256.058 428.813 255.056C432.083 253.381 430.842 250.095 432.907 249.625C438.877 248.267 437.53 255.033 439.894 245.464C443.856 247.567 447.142 245.13 450.708 248.52C450.057 242.842 455.271 245.532 458.313 241.68C461.362 237.823 459.466 227.236 465.96 235.979C467.121 233.752 473.882 227.142 475.124 226.224C478.821 223.51 478.238 227.329 480.999 225.24C481.487 224.876 479.905 223.426 483.357 221.64C485.618 220.457 501.867 211.194 502.97 210.902C515.615 207.351 497.974 216.105 496.7 219.423C495.989 219.161 495.282 218.895 494.546 218.656C489.204 220.637 494.297 223.033 497.031 222.691C499.761 222.349 502.866 218.177 505.451 218.445C506.742 218.583 508.944 223.718 505.857 224.723C509.656 224.507 506.535 228.389 508.502 229.11C510.651 229.892 524.159 222.792 522.72 220.104C520.188 221.419 517.17 223.262 514.597 224.591C508.662 221.868 509.646 200.365 522.441 201.482C531.7 202.299 522.734 212.1 536.373 199.423C533.817 200.604 531.55 201.303 529.227 202.351C527.043 199.005 532.766 200.822 533.986 198.689C534.569 197.653 527.732 198.239 532.019 194.769C538.916 197.451 539.232 190.711 546.123 186.844C544.7 188.786 543.261 190.734 541.839 192.682C555.462 189.885 529.168 205.952 552.834 195.545C550.221 197.187 547.472 198.647 544.895 200.393C547.221 201.497 548.095 208.031 549.895 208.517C554.637 209.784 558.2 205.481 562.125 203.679C563.843 202.885 563.609 204.902 563.753 204.834C566.105 203.761 564.444 201.899 566.353 200.685C568.726 199.171 577.133 197.325 578.149 196.48C580.863 194.247 573.545 192.726 573.669 192.255C574.485 189.179 579.401 188.739 577.756 186.174C569.171 193.07 540.465 205.733 562.897 187.778C553.732 187.17 552.395 180.173 562.121 174.323C570.113 169.53 566.112 174.752 571.8 175.094C572.522 175.122 584.235 170.542 583.812 168.394C585.631 172.922 591.184 174.869 591.12 180.557C591.116 181.387 586.485 183.494 589.929 186.234C591.657 187.61 595.938 190.337 596.772 192.808C596.853 190.744 596.884 188.454 596.965 186.304C600.287 184.271 602.376 183.607 604.319 183.579C606.22 183.538 607.975 184.097 610.532 184.629C609.73 183.474 603.643 180.01 609.634 178.943C609.953 178.9 611.116 180.664 614.235 180.247C620.537 179.392 621.9 179.44 620.626 187.002C630.028 178.314 635.475 183.29 645.902 175.97C640.184 169.928 637.008 173.627 627.346 180.156C626.052 178.692 625.004 177.126 623.684 175.655C639.41 172.608 632.377 175.618 638.542 168.323C640.067 166.521 650.794 162.478 645.044 159.313C643.663 158.576 637.339 161.796 637.203 159.661C637.169 159.252 644.582 154.611 645.491 154.751C656.823 156.383 643.322 167.567 666.099 154.369C666.736 154 666.002 151.793 667.163 150.904C669.342 149.241 670.486 151.662 672.37 150.122C674.31 148.556 675.802 143.926 680.454 145.489C688.902 148.348 676.262 157.814 668.744 157.773C669.505 165.945 714.012 146.382 716.58 144.835C727.599 137.063 708.034 147.033 706.163 145.49C705.379 144.816 700.928 133.896 698.833 143.123C698.227 145.851 705.697 145.884 702.434 148.648C699.2 151.405 699.292 147.588 698.927 147.482C697.657 147.126 694.16 150.056 693.458 149.829C682.417 146.547 678.645 135.857 695.946 146.469C699.098 140.987 686.022 140.141 690.777 135.276C696.596 129.351 703.846 132.126 704.852 131.963C716.578 130.153 701.287 128.024 715.296 124.933C723.126 123.235 706.387 134.213 722.796 126.96C736.556 120.979 728.038 121.459 726.762 115.279C726.461 113.837 733.501 109.138 723.243 113.886C723.533 115.511 723.782 117.705 723.679 119.353C720.702 119.271 713.372 113.516 711.891 113.819C704.72 115.311 706.603 119.088 700.818 116.148C705.697 119.968 699.912 118.858 698.614 120.652C693.983 127.21 702.853 125.079 686.554 126.236C689.432 127.748 692.086 129.312 694.843 130.875C693.207 131.674 691.555 132.488 689.885 133.311C685.172 129.264 676.397 133.925 682.317 125.165C671.85 128.028 668.411 130.955 668.063 135.88C667.999 136.82 666.657 137.795 664.998 138.642C665.83 139.605 667.81 142.852 667.735 143.395C667.053 148.183 660.34 143.536 660.496 140.506C659.227 140.951 658.247 141.239 657.882 141.337C655.597 141.938 658.708 137.816 656.649 137.854C655.993 137.856 650.173 141.158 649.671 140.307C646.236 134.946 658.058 134.363 636.717 140.434C638.733 145.848 647.33 140.356 647.603 147.002C647.862 154.15 639.02 148.608 641.363 156.434C640.371 155.44 639.703 154.534 638.689 153.348C632.368 160.308 629.272 154.366 626.225 154.205C620.204 153.903 598.959 165.075 620.833 160.619C618.301 162.527 615.479 164.241 612.961 166.088C606.91 155.665 610.725 159.051 596.427 164.317C595.775 164.558 595.112 164.574 594.47 164.508C592.024 164.233 589.872 162.739 589.869 168.374C587.402 162.696 580.388 170.574 579.223 170.35C572.889 169.061 583.465 157.325 591.459 158.678C592.988 158.922 594.415 159.638 595.611 160.976C596.987 155.494 599.511 160.509 602.865 157.965C607.745 154.283 607.962 152.945 616.189 153.469C619.846 145.076 590.549 163.516 605.697 147.187C620.235 129.826 731.047 75.8512 759.723 66.8761C763.969 65.2551 768.069 63.7315 772.086 62.2862C774.857 61.2949 777.551 60.3405 780.694 59.3409C782.347 58.8215 783.984 58.3233 786.085 57.7789C788.303 57.2496 790.415 56.5988 795.624 56.0921C798.9 56.2147 801.078 54.4476 814.19 58.5709C818.035 60.0306 822.786 62.4228 827.577 66.905C833.221 72.0358 837.888 80.365 839.309 87.9053C841.791 100.685 837.957 109.013 837.119 111.417C833.946 118.688 832.473 119.948 830.9 122.228C829.604 123.931 828.616 125.079 827.638 126.182C824.19 130.005 822.166 131.87 819.916 134.007C811.642 141.7 805.122 147.088 798.197 152.81C784.574 163.98 771.241 174.283 754.327 186.815C753.111 187.719 749.726 190.329 745.334 193.44C736.452 199.717 724.319 207.294 725.443 200.727C725.75 199.288 735.769 188.566 722.647 191.788C726.582 192.745 721.837 198.841 721.535 199.478C714.751 213.903 722.365 210.486 704.539 223.935ZM615.467 215.47C639.725 199.217 619.887 208.446 618.618 196.669C615.631 198.871 612.628 201.086 609.589 203.327C610.766 203.243 611.93 203.167 613.103 203.086C613.107 203.084 613.11 203.081 613.113 203.079C613.906 207.202 614.644 211.369 615.467 215.47ZM234.108 504.367C234.078 502.591 234.052 500.811 234.139 498.974C237.296 496.716 240.59 494.353 243.786 492.109C244.031 493.104 244.297 494.096 244.546 495.087C241.064 498.089 237.584 501.117 234.108 504.367ZM665.711 160.803C659.217 159.72 662.523 165.509 654.715 165.855C657.624 169.907 660.564 173.827 663.471 177.828C668.013 174.882 668.408 172.635 674.196 171.275C672.908 170.133 671.62 168.98 670.346 167.822C669.604 168.539 668.821 169.328 668.085 170.003C664.851 166.636 673.105 162.076 665.724 160.786C665.72 160.791 665.716 160.797 665.711 160.803ZM616.835 186.825C615.238 187.239 611.061 188.363 607.514 189.767C604.735 190.86 602.379 192.118 602.175 193.243C601.519 196.861 605.924 195.579 609.794 194.181C614.74 192.384 618.902 190.339 611.388 197.269C610.701 197.909 609.912 198.628 609.012 199.435C609.554 200.243 609.894 201.135 610.335 201.985C611.293 201.579 612.246 201.174 613.196 200.77C616.27 199.454 619.277 198.158 622.322 196.839C620.382 193.547 618.814 190.119 616.835 186.825ZM699.544 151.952C701.22 150.983 705.182 147.411 708.168 143.951C712.382 139.197 715.059 134.54 710.487 134.886C709.268 134.986 707.668 137.825 705.887 140.914C704.329 143.764 702.619 146.834 701.092 147.814C699.087 149.1 699.11 144.802 696.175 148.577C697.242 149.663 698.346 150.927 699.548 151.936C699.547 151.941 699.546 151.947 699.544 151.952ZM704.76 172.945C708.2 169.603 711.357 166.27 714.82 162.86C709.67 161.847 705.875 167.826 702.248 163.685C703.025 162.582 703.783 161.496 704.542 160.406C706.041 160.782 707.489 161.197 709.02 161.55C710.489 156.719 707.696 156.964 714.116 153.221C705.627 149.218 702.09 146.307 696.975 160.635C696.26 155.544 685.493 145.284 686.19 157.862C686.314 160.201 691.452 157.975 691.717 158.164C694.709 160.735 693.727 164.543 696.639 166.908C697.908 168.014 700.698 165.891 702.464 167.423C703.325 168.17 702.614 172.679 704.76 172.945ZM685.635 162.868C685.426 160.108 678.016 158.742 675.365 162.131C671.128 167.482 682.563 165.497 685.635 162.868ZM234.092 504.388C234.097 504.381 234.102 504.374 234.108 504.367C234.108 504.373 234.108 504.38 234.108 504.387C234.103 504.387 234.097 504.387 234.092 504.388ZM631.421 182.505C629.265 185.791 624.592 187.821 626.361 190.461C624.614 190.648 622.845 190.859 621.078 191.061C621.522 191.899 621.98 192.732 622.419 193.562C627.123 191.836 631.851 190.126 636.533 188.473C634.853 186.475 633.207 184.45 631.421 182.505ZM581.981 205.617C576.293 208.311 582.968 209.595 582.734 212.073C582.509 214.544 576.753 215.74 578.757 218.036C582.083 216.367 585.514 214.653 588.863 212.983C586.461 210.6 584.301 208.02 581.97 205.623C581.973 205.621 581.977 205.619 581.981 205.617ZM518.327 284.255C522.33 282.399 522.9 286.07 527.383 277.888C527.378 277.892 527.373 277.896 527.367 277.9C519.294 280.628 509.513 285.015 503.943 292.475C510.393 291.931 512.027 287.19 518.327 284.255ZM683.257 163.383C683.829 160.273 675.301 161.764 674.65 164.724C673.587 169.505 682.377 168.097 683.257 163.383ZM393.775 408.149C393.513 418.459 408.752 417.978 416.674 406.981C417.347 406.033 409.203 409.11 410.203 406.369C410.303 406.098 414.042 403.453 414.269 401.876C414.492 400.298 411.965 398.983 412.785 396.982C414.245 393.463 422.249 391.735 422.674 388.272C422.725 387.812 416.984 387.866 416.679 387.935C411.685 389.138 410.786 395.536 410.24 395.995C407.365 398.407 405.654 395.254 404.396 395.173C402.039 395.014 400.489 398.188 400.238 398.236C393.809 399.277 404.683 392 405.282 389.928C406.928 384.309 401.526 384.421 409.337 375.956C410.074 375.158 420.444 367.45 405.133 374.217C425.481 348.155 389.481 380.307 386.473 384.967C385.077 387.113 390.037 387.546 389.807 389.645C389.279 394.445 385.205 398.376 388.606 401.939C395.763 409.421 397.488 399.551 402.669 397.741C403.606 399.843 404.773 401.698 405.314 404.045C404.722 400.78 393.751 407.403 393.762 408.133C393.767 408.138 393.771 408.144 393.775 408.149ZM450.779 349.533C458.371 347.654 454.061 342.765 461.525 341.755C462.596 333.605 453.761 340.82 452.477 341.386C446.73 343.915 442.991 338.783 439.236 344.104C443.21 345.796 446.896 347.758 450.779 349.533ZM399.538 385.433C401.326 379.897 394.563 385.183 393.914 384.89C386.802 381.939 408.027 367.219 399.538 385.433ZM729.776 145.599C731.832 144.329 728.722 142.726 729.837 140.72C731.043 138.637 738.513 136.379 737.148 134.951C735.872 133.453 722.083 137.472 732.118 128.516C731.099 127.904 730.722 127.157 729.95 126.491C727.092 128.613 723.846 131 720.998 133.108C724.5 134.446 728.183 135.853 731.63 137.097C731.468 140.384 728.524 138.544 728.463 138.59C728.465 138.593 728.467 138.596 728.469 138.598C725.611 141.071 725.093 148.504 729.776 145.599ZM570.175 252.906C574.33 259.653 573.656 249.137 574.954 246.94C576.257 244.742 580.595 245.138 577.585 243.152C573.14 243.559 569.712 252.152 570.181 252.914C570.179 252.911 570.177 252.908 570.175 252.906ZM481.841 325.894C485.483 320.727 483.474 319.676 490.761 317.091C489.382 315.743 487.977 314.362 486.615 313.037C481.925 316.543 485.608 320.698 478.864 323.021C477.756 323.399 476.978 318.438 473.842 322.602C476.431 323.6 479.193 324.793 481.841 325.894ZM501.358 302.24C496.018 306.645 500.961 322.258 506.913 309.028C507.79 307.06 505.373 298.926 501.358 302.24ZM679.011 184.173C688.768 177.421 676.47 183.521 672.67 183.403C693.427 165.486 670.612 185.757 663.65 181.114C662.285 184.943 660.451 192.734 666.771 189.72C669.422 188.448 667.187 187.188 667.327 187.095C671.992 184.327 673.79 187.782 679.011 184.173ZM441.086 357.408C441.369 357.046 439.198 355.352 440 354.069C440.803 352.791 444.496 352.317 443.75 350.83C443.011 349.324 437.105 352.228 436.273 354.372C435.446 356.528 438.518 360.662 441.086 357.408ZM480.968 335.294C484.488 330.215 470.9 328.206 469.914 329.013C461.294 336.207 479.352 332.617 480.968 335.294ZM667.171 213.869C675.598 201.329 661.95 200.725 651.842 201.81C651.537 203.357 651.205 204.926 650.899 206.46C651.332 198.128 655.013 187.456 641.715 204.395C651.726 198.782 645.103 205.894 645.275 206.216C651.327 216.393 661.557 201.901 667.161 213.876C667.164 213.874 667.168 213.871 667.171 213.869ZM424.197 366.796C419.375 370.537 407.822 381.984 416.896 381.481C419.326 376.585 421.781 371.673 424.197 366.796ZM746.864 101.329C741.102 100.329 736.694 102.041 730.887 104.496C737.733 106.431 734.411 108.236 733.014 109.898C730.91 112.4 737.372 109.763 737.485 110.033C738.825 113.87 734.903 116.021 744.279 112.364C742.459 114.558 740.667 116.764 738.862 118.962C746.043 116.406 748.707 118.25 754.306 119.626C747.192 113.835 754.66 116.327 758.62 110.733C760.596 107.931 749.886 101.802 746.846 101.335C746.851 101.333 746.858 101.331 746.864 101.329ZM679.827 206.372C680.135 204.364 680.082 201.999 680.24 199.848C681.387 198.796 682.539 197.763 683.67 196.722C684.576 197.616 685.491 198.575 686.393 199.411C688.22 198.5 686.542 197.568 686.921 197.079C686.925 197.084 686.929 197.09 686.933 197.095C692.509 190.017 695.343 188.22 703.202 187.193C700.89 184.108 698.578 181.023 696.266 177.937C695.267 179.146 694.216 180.381 693.212 181.581C693.82 183.714 694.423 185.852 695.026 187.989C692.949 188.117 690.878 188.251 688.777 188.397C688.09 189.843 687.186 191.499 686.625 192.825C674.564 188.397 691.774 184.652 689.172 181.012C687.548 178.637 674.75 188.379 674.082 191.359C673.985 191.794 681.605 196.112 674.344 196.327C673.189 196.369 662.562 182.64 665.932 197.677C666.403 199.816 675.401 206.55 679.827 206.372ZM729.898 175.84C725.267 174.657 725.966 172.69 728.246 170.686C733.039 166.51 743.973 162.221 732.733 163.077C732.877 156.586 732.321 157.087 726.362 155.901C725.835 155.789 727.231 152.986 726.931 152.989C722.436 153.244 719.426 157.161 716.669 153.552C716.438 153.825 716.21 154.091 715.982 154.356C715.542 154.881 715.104 155.398 714.648 155.944C720.621 156.81 716.953 163.161 716.93 167.692C716.927 169.739 719.492 168.445 719.524 170.211C719.545 170.849 715.703 172.427 716.498 173.704C718.232 176.639 723.038 178.759 727.868 178.257C727.87 178.26 727.872 178.263 727.874 178.265C728.574 177.461 729.217 176.642 729.898 175.84ZM569.922 284.266C565.01 280.28 559.031 282.579 566.678 273.071C565.482 272.458 564.276 271.864 563.08 271.251C561.555 272.531 560.077 273.776 558.516 275.071C564.527 293.179 543.382 283.556 556.771 289.529C558.23 290.175 561.086 286.076 559.619 291.919C559.626 291.917 559.633 291.916 559.64 291.915C564.167 287.053 563.516 284.821 569.922 284.266ZM602.281 254.601C606.549 235.249 581.31 261.331 588.165 260.472C588.759 260.412 599.483 248.892 602.281 254.601ZM512.596 336.237C518.102 332.348 514.257 326.52 512.2 324.929C510.138 323.333 507.949 328.179 507.23 328.227C504.877 328.369 507.675 325.168 504.562 325.278C503.536 325.324 492.661 330.446 492.417 331.009C491.044 334.141 497.997 336.085 497.714 337.126C496.801 340.526 491.976 340.432 493.178 343.358C495.731 349.609 497.221 339.883 498.099 339.079C500.774 336.662 502.742 339.778 505.332 338.739C507.92 337.699 508.564 335.634 510.615 334.407C511.297 334 512.31 336.424 512.596 336.237ZM521.51 311.045C519.069 319.5 536.21 313.742 537.095 311.529C539.667 304.991 522.684 307.001 521.51 311.045ZM701.747 176.008C698.887 182.931 712.832 176.347 715.249 172.608C713.742 171.753 702.663 173.676 701.747 176.008ZM664.035 216.192C668.035 211.709 656.643 209.476 652.71 212.591C653.753 218.884 655.301 216.322 658.041 214.56C660.774 212.807 660.892 219.705 664.035 216.192ZM450.551 375.507C451.621 374.797 465.147 358.59 454.578 364.208C453.768 364.641 442.791 374.065 442.48 375.403C441.807 378.137 447.785 377.303 450.551 375.507ZM646.299 239.927C645.868 234.13 648.349 232.353 642.614 229.464C642.61 229.467 642.607 229.469 642.604 229.472C647.883 223.316 655.26 232.49 656.469 231.27C660.714 226.987 651.175 223.67 652.514 219.232C647.112 226.507 645.683 220.523 640.158 224.215C638.936 225.033 636.196 231.299 636.751 233.509C637.313 235.714 643.536 238.924 646.299 239.927ZM428.203 394.169C434.869 391.415 435.114 381.224 426.664 386.121C422.539 388.507 424.149 395.844 428.203 394.169ZM595.165 166.535C595.351 166.669 595.537 166.802 595.724 166.936C597.455 168.153 599.202 169.354 600.974 170.534C600.173 171.165 599.37 171.8 598.565 172.438C597.319 173.433 596.07 174.434 594.816 175.44C595.977 174.262 597.138 173.094 598.302 171.928C598.65 171.583 598.998 171.238 599.346 170.893C598.871 171.055 598.406 171.176 597.957 171.26C594.06 171.969 591.442 169.755 595.154 166.541C595.157 166.539 595.161 166.537 595.165 166.535ZM444.34 249.872C441.447 249.28 441.024 256.801 441.741 256.932C447.087 257.901 448.346 250.695 444.34 249.872ZM720.698 185.359C727.52 181.327 717.178 176.471 712.826 178.871C716.389 178.611 716.772 187.687 720.698 185.359ZM496.7 219.423C497.76 219.812 498.828 220.196 499.964 220.543C497.15 220.776 496.367 220.293 496.7 219.423ZM458.562 380.599C460.009 380.468 467.58 375.494 467.962 373.999C468.743 370.87 459.805 370.68 457.52 374.581C457.264 375.008 457.124 380.723 458.577 380.588C458.572 380.592 458.567 380.596 458.562 380.599ZM583.702 168.143C583.76 168.222 583.796 168.307 583.812 168.394C583.779 168.31 583.733 168.229 583.702 168.143ZM285.376 337.952C285.506 338.052 285.617 338.165 285.697 338.29C285.598 338.181 285.478 338.077 285.376 337.952ZM514.462 348.849C522.665 354.696 525.105 346.435 517.869 345.951C517.473 345.937 515.054 348.424 514.462 348.849Z" fill="#FCAF45"/>
</svg>
