<svg width="2210" height="646" viewBox="0 0 2210 646" fill="none" xmlns="http://www.w3.org/2000/svg">
<rect width="2210" height="639" fill="transparent"/>
<path d="M1196.46 366.995C1074.5 405.707 954.554 435.047 831.971 473.351C723.606 507.222 614.846 545.202 506.28 581.259C462.173 595.923 418.604 610.046 375.194 623.862C354.11 630.643 330.42 638.099 313.676 644.717C312.73 645.108 312.119 645.399 312.367 645.259C312.594 645.119 313.245 644.826 315.1 643.527C315.294 643.38 316.742 642.398 318.622 640.663C320.504 638.831 323.298 636.33 326.609 630.164C328.209 627.064 329.904 622.867 330.665 617.361C331.548 613.181 330.893 601.777 327.004 594.678C318.744 579.208 308.596 576.491 304.361 574.747C298.897 573.093 299.315 573.5 298.054 573.231C297.112 573.094 296.381 573.023 295.784 572.978C294.596 572.891 293.929 572.897 293.513 572.901C293.063 572.91 293.07 572.919 292.995 572.924C292.947 572.93 292.965 572.933 293.036 572.932C293.173 572.929 293.547 572.905 294.008 572.862C294.359 572.832 294.786 572.79 295.277 572.737C299.657 572.241 304.83 571.427 310.284 570.517C320.897 568.738 332.175 566.631 343.262 564.519C388.096 555.903 432.482 546.795 477.926 537.577C544.049 524.132 609.982 510.731 676.335 497.385C832.486 465.975 988.893 435.231 1145.71 405.714C1289.65 378.682 1434.23 352.37 1578.89 328.864C1591.85 326.759 1604.08 324.815 1616.95 322.785C1723.8 306.008 1831.61 290.969 1939.44 280.608C1986.84 276.055 2034.05 272.501 2081.56 269.934C2116.9 268.011 2152.37 266.636 2187.73 265.401C2192.64 265.23 2197.38 265.442 2200.9 266.015C2204.41 266.589 2206.43 267.471 2206.48 268.502C2206.54 269.534 2204.63 270.649 2201.19 271.631C2197.76 272.61 2193.07 273.371 2188.17 273.779C2152.62 276.717 2117.05 279.794 2081.66 283.424C2042.29 287.444 2003.2 292.128 1963.95 297.522C1957.42 294.005 1948.38 291.796 1932.37 292.321C1924.06 292.606 1912.28 293.788 1903.65 295.706C1896.02 297.411 1890.08 299.475 1884.75 301.407C1879.14 303.431 1873.73 305.375 1866.57 306.796C1854.75 309.165 1843.33 312.618 1831.61 316.253C1827.28 317.585 1822.86 318.949 1818.44 320.284C1781.32 326.72 1744.15 333.58 1707.07 340.726C1692.62 342.719 1679.29 344.659 1668.18 346.781C1658.33 348.663 1648.92 351.24 1640.15 353.94C1634.49 355.085 1628.76 356.246 1622.98 357.425C1610.36 359.995 1598.34 362.481 1585.61 365.122C1561.35 370.175 1536.6 375.41 1512.14 380.658C1482.81 385.143 1452.56 389.918 1412.93 397.293C1396 400.442 1378.99 403.222 1362.84 405.871C1338.78 409.828 1316.3 413.561 1296.85 418.15C1283.85 421.219 1269.87 423.471 1256.05 425.703C1237.41 428.718 1218.9 431.727 1202.51 436.792C1192.21 439.975 1182.87 443.191 1174.18 446.184C1160.34 450.946 1148.29 455.108 1137.08 457.569C1116.03 462.191 1098.05 467.342 1082.2 471.892C1063.12 477.369 1047.18 481.963 1032.63 483.732C1030.43 484 1027.9 484.271 1025.06 484.573C1010.1 486.161 986.126 488.714 952.68 497.252C940.819 500.283 929.807 503.93 919.02 507.509C903.403 512.699 888.072 517.78 871.28 520.592C868.771 521.012 866.082 521.09 863.629 521.161C860.472 521.26 857.72 521.345 856.244 522.103C851.914 524.328 844.928 527.261 837.395 530.44C831.879 532.771 825.978 535.255 820.537 537.7C777.45 547.712 734.373 557.728 691.244 567.737C671.354 572.352 651.524 576.95 631.971 581.481C621.287 581.855 610.518 582.44 599.457 583.515C584.544 585.02 565.856 588.55 542.001 593.04C527.166 595.841 510.487 598.984 491.902 602.17C487.75 602.891 483.554 603.604 479.321 604.306C435.089 611.621 389.028 621.985 360.148 629.041C353.699 630.605 348.087 632.004 340.949 633.692C334.719 635.183 327.964 636.778 320.105 638.47C316.433 639.268 311.859 640.195 307.667 640.959C306.326 641.191 305.03 641.407 303.764 641.605C302.44 641.806 301.493 641.964 299.535 642.184C298.667 642.282 297.798 642.369 296.896 642.441C295.932 642.508 295.328 642.582 293.258 642.597C291.293 642.551 289.727 642.682 285.296 641.781C282.84 641.154 279.482 640.476 274.184 636.904C269.097 633.791 261.258 623.952 261.222 613.068C261.836 596.027 268.746 592.481 271.042 589.511C271.766 588.828 272.416 588.274 273.011 587.792C273.308 587.552 273.592 587.33 273.865 587.123C273.989 587.029 274.175 586.89 274.228 586.851C274.288 586.806 274.346 586.763 274.404 586.72C274.87 586.376 275.303 586.072 275.714 585.793C276.533 585.238 277.263 584.783 277.951 584.373C278.639 583.963 279.284 583.6 279.913 583.258C280.22 583.091 280.566 582.909 280.823 582.773C281.017 582.67 281.211 582.568 281.404 582.467C282.949 581.66 284.497 580.915 286.184 580.144C287.51 579.529 288.736 578.976 290.152 578.361C290.852 578.057 291.577 577.746 292.33 577.429C293.083 577.111 293.58 576.896 294.234 576.621C299.58 574.387 304.924 572.276 310.793 570.022C322.606 565.5 334.793 561.025 349.43 555.801C403.029 536.746 448.938 521.923 483.904 510.537C484.537 510.331 485.167 510.126 485.795 509.922C503.387 504.208 518.443 499.335 529.78 495.524C549.292 488.968 572.885 481.179 597.178 473.183C634.639 460.844 672.216 448.497 693.687 441.021C701.211 438.397 709.056 435.61 717.661 432.564C741.455 424.138 770.001 414.029 809.837 400.898C851.686 387.105 877.697 379.471 905.065 371.983C916.214 368.932 926.3 367.477 936.801 365.95C951.722 363.777 967.15 361.556 986.96 354.612C991.582 352.991 996.433 351.077 1001.52 349.07C1010.86 345.384 1020.98 341.392 1031.68 338.43C1035.41 337.397 1038.79 336.803 1042.11 336.221C1045.76 335.58 1049.34 334.95 1053.24 333.762C1067.81 329.329 1081.99 324.805 1094.53 320.803C1110.71 315.642 1124.35 311.292 1132.88 309.042C1148.11 305.029 1164.48 299.302 1180.91 293.551C1193.58 289.12 1206.25 284.682 1218.73 280.907C1254.41 270.109 1303.1 253.805 1352.96 236.358C1371.96 229.717 1388.13 225.775 1409.5 220.529C1422.48 217.362 1437.72 213.622 1455.91 208.72C1466.35 205.901 1475.02 202.298 1482.75 199.053C1489.77 196.098 1496.81 193.198 1503.99 191.409C1510.36 189.819 1514.7 190.058 1518.81 190.29C1523.47 190.519 1528 190.692 1534.51 188.391C1537.97 187.165 1541.99 185.146 1546.7 182.769C1548.5 181.847 1550.68 180.787 1552.86 179.733C1552.83 180.061 1552.88 180.33 1552.94 180.528C1553.36 181.924 1560.45 180.556 1567.2 179.275C1569.9 178.762 1572.57 178.256 1574.78 177.936C1575.3 177.859 1575.86 177.769 1576.44 177.668C1585.42 176.01 1598.66 172.146 1609.76 168.702C1614.67 167.179 1619.19 166.276 1624.36 165.253C1628.94 164.346 1634.56 163.189 1641.12 161.517C1644.89 160.552 1647.76 160.121 1650.24 159.737C1652.09 159.443 1653.65 159.197 1655.05 158.833C1656.26 158.517 1657.1 157.826 1658.04 157.049C1658.71 156.49 1659.44 155.884 1660.4 155.344C1662.68 154.053 1665.74 152.946 1667.94 152.469C1668.97 152.248 1669.78 152.172 1670.63 152.084C1671.65 151.973 1672.66 151.865 1673.98 151.533C1680.09 150.002 1685.52 147.861 1691.24 145.617C1697.88 143.044 1704.17 140.557 1712 138.639C1714.48 138.034 1717.12 137.557 1719.65 137.107C1722.3 136.632 1724.76 136.207 1726.92 135.64C1735.95 133.268 1743.42 129.947 1750.79 126.748C1755.43 124.696 1760.1 122.68 1764.41 121.258C1772.03 118.732 1776.38 116.141 1779.13 114.364C1780.63 113.422 1781.7 112.697 1783.17 112.139C1784.51 111.779 1785.86 111.426 1787.16 111.09C1788.36 110.831 1789.6 110.567 1790.71 110.21C1790.79 110.182 1790.87 110.153 1790.95 110.126C1798.16 108.324 1805.31 106.681 1812.47 105.048C1828.27 101.47 1844.29 97.8477 1860.84 92.7782C1864.25 91.73 1868.05 90.1767 1871.63 88.7041C1876.16 86.8623 1880.93 84.9871 1886.07 83.8732C1887.36 83.5942 1888.61 83.3386 1889.62 83.1343C1892.12 82.6338 1894.75 82.064 1896.06 81.7859C1896.34 81.7337 1896.54 81.6911 1896.26 81.8477C1896.11 81.9355 1895.84 82.0659 1895.17 82.4248C1894.41 82.914 1893.62 83.0497 1890.25 85.8717C1888.71 87.6822 1885.22 88.9309 1881.6 99.772C1879.82 105.505 1880.43 114.307 1883.54 120.171C1886.35 125.812 1889.91 128.76 1891.69 130.165C1892.72 130.964 1893.66 131.582 1894.51 132.087C1895.3 132.55 1895.86 132.84 1896.44 133.129C1897.02 133.408 1897.53 133.636 1898.01 133.83C1898.42 133.998 1898.76 134.128 1899.1 134.247C1900.49 134.734 1901.15 134.879 1901.79 135.025C1902.88 135.255 1903.32 135.278 1903.59 135.294C1903.85 135.303 1903.91 135.281 1903.9 135.256C1904.56 134.928 1900.38 134.791 1896.91 134.902C1881.17 135.425 1864 137.01 1849.04 140.797C1844.23 142.036 1839.35 143.6 1834.57 145.161C1831.73 146.062 1829.3 146.898 1826.51 147.744C1826.99 146.968 1827.2 146.281 1827.39 145.641C1827.79 144.322 1828.15 143.187 1830.6 141.864C1836.69 138.686 1843.23 134.645 1842.14 132.665C1841.83 132.13 1841.9 131.465 1841.99 130.793C1842.23 129.106 1842.37 127.394 1836.4 127.625C1832.44 127.767 1821.87 128.367 1815.74 130.678C1814.38 131.184 1813.61 131.862 1812.74 132.617C1811.12 133.984 1809.4 135.566 1803.3 136.917C1802.27 137.147 1801.13 137.389 1799.94 137.638C1795.44 138.585 1790.27 139.672 1788.39 140.875C1786.31 142.247 1787.03 143.277 1787.78 144.493C1788.77 146.075 1789.99 147.944 1785.71 151.205C1784.86 151.85 1783.08 152.331 1781.72 152.699C1780.76 152.958 1780.02 153.161 1779.97 153.319C1779.92 153.5 1780.29 153.791 1780.77 154.16C1782.46 155.457 1785.28 157.747 1775.26 159.625C1772.61 160.123 1769.48 160.543 1766.61 160.93C1762.33 161.51 1759.13 161.932 1758.7 162.463C1758.56 162.661 1758.47 162.864 1758.41 163.07C1755.18 163.588 1751.72 164.148 1748.49 164.667C1744.38 164.856 1738.26 165.994 1731.03 167.349C1729.28 167.677 1727.42 168.024 1725.46 168.383C1718.83 169.46 1712.57 170.474 1706.03 171.54C1700.69 172.272 1695.42 172.848 1689.52 173.32C1686.81 173.536 1684.13 173.705 1681.49 173.836C1673.17 174.183 1664.88 174.182 1657.23 174.091C1653.01 174.046 1648.78 174.012 1644.44 174.067C1646.07 173.68 1647.52 173.309 1648.62 172.961C1656.17 170.578 1658.71 168.135 1661.3 165.841C1663.01 164.317 1664.62 162.88 1667.45 161.627C1672.62 159.336 1671.78 157.909 1671.19 156.847C1670.88 156.297 1670.64 155.845 1671.3 155.43C1671.83 155.096 1673.14 154.748 1674.47 154.39C1675.64 154.078 1676.84 153.756 1677.58 153.431C1677.65 153.403 1677.71 153.375 1677.77 153.347C1686.98 149.393 1683.78 148.637 1679.18 147.529C1678.35 147.33 1677.47 147.12 1676.6 146.88C1674.88 146.362 1673.22 145.709 1672.19 144.737C1670.84 143.21 1671.08 142.616 1675.55 141.108C1675.68 141.068 1675.8 141.026 1675.93 140.985C1675.8 140.98 1675.66 140.976 1675.53 140.972C1671.65 140.805 1667.72 140.65 1663.73 140.506C1662.19 140.845 1661.1 141.604 1659.59 142.811C1656.73 144.997 1647.62 147.263 1640.05 149.12C1636.54 149.981 1633.6 150.71 1631.97 151.263C1623.22 154.219 1626.15 155.576 1628.77 156.762C1630.2 157.417 1631.52 158.024 1630.72 158.821C1630.38 159.162 1630.99 159.329 1631.59 159.5C1632.06 159.632 1632.54 159.766 1632.6 159.984C1633.01 161.566 1627.93 163.725 1623.11 165.748C1620.37 166.904 1617.66 168.026 1616.32 168.934C1615.9 169.211 1615.58 169.476 1615.28 169.73C1614.84 170.102 1614.41 170.458 1613.7 170.826C1612.09 171.663 1608.62 172.663 1604.77 173.766C1602.8 174.332 1600.73 174.924 1598.77 175.534C1596.23 176.325 1595.41 177.131 1594.58 177.968C1593.98 178.561 1593.36 179.173 1592.12 179.811C1589.88 180.965 1585.1 182.108 1580.62 183.18C1578.67 183.646 1576.77 184.102 1575.17 184.533C1574.53 184.709 1574.23 184.876 1574.19 185.038C1566.96 186.883 1560.04 188.685 1553.18 190.462C1519.22 199.304 1489.75 206.983 1445.03 213.574C1436.62 214.811 1427.47 216.556 1418.44 218.462C1389.06 223.214 1359.79 227.921 1330.44 232.615C1324.4 232.229 1317.07 232.317 1308.54 232.896C1292.49 233.987 1276.24 236.567 1257.07 239.602C1242.89 241.847 1227.1 244.343 1208.64 246.665C1177.56 250.574 1145.71 254.876 1109.93 260.553C1074.29 266.209 1033.57 272.914 1004.75 277.803C989.074 280.463 972.347 282.066 956.772 283.539C934.824 285.619 915.184 287.428 903.764 291.643C900.045 293.002 896.588 294.848 893.264 296.634C891.431 297.619 889.63 298.585 887.852 299.444C887.306 299.699 886.763 299.945 886.222 300.179C879.5 301.117 873.098 301.996 866.53 302.892C854.454 303.395 836.584 304.726 819.159 309.206C812.524 310.064 805.461 310.981 799.104 311.772C784.682 313.604 770.707 315.31 756.672 316.955C751.893 317.52 747.383 318.036 742.685 318.571C742.639 318.576 742.594 318.581 742.549 318.586C733.023 319.672 723.806 320.677 714.276 321.676C710.435 322.072 706.18 322.515 702.303 322.897C692.075 323.918 681.85 324.872 671.751 325.709C666.492 326.141 661.071 326.565 655.601 326.951C646.837 327.565 637.946 328.091 629.099 328.421C620.473 328.751 611.775 328.844 603.26 328.743C597.641 328.694 592.04 328.643 586.397 328.588C584.091 328.563 581.841 328.368 580.208 328.026C578.568 327.686 577.576 327.219 577.588 326.731C577.592 326.246 578.545 325.768 580.172 325.356C581.785 324.948 584.022 324.654 586.32 324.523C591.944 324.205 597.528 323.883 603.132 323.562C611.632 323.098 620.163 322.449 628.675 321.566C637.388 320.671 646.135 319.583 654.778 318.414C660.181 317.684 665.507 316.925 670.704 316.153C680.665 314.678 690.771 313.086 700.866 311.436C704.697 310.805 708.89 310.115 712.685 309.471C722.115 307.887 731.236 306.301 740.677 304.637C740.734 304.627 740.792 304.617 740.85 304.606C745.438 303.795 749.88 302.997 754.565 302.156C768.43 299.655 782.228 297.102 796.492 294.43C803.544 293.09 811.556 291.589 818.852 290.187C822.987 289.395 827.421 288.55 831.416 287.774C833.624 287.347 835.886 286.912 838.182 286.469C853.655 283.478 868.595 280.535 884.138 277.461C921.081 270.125 958.47 262.547 995.758 254.936C1048.15 244.234 1100.79 233.375 1153.16 222.549C1205.69 211.692 1258.12 200.832 1310.6 189.982C1430.54 165.195 1550.74 140.268 1671 116.01C1750.02 101.222 1815.58 83.5441 1908.93 74.0379C1910.62 74.1942 1912.2 74.2321 1916.11 75.1032C1917.24 75.3787 1918.33 75.6481 1920.28 76.3451C1920.74 76.5155 1921.21 76.6934 1921.76 76.923C1922.39 77.1841 1923.06 77.4844 1923.78 77.842C1924.53 78.2125 1925.22 78.5726 1926.19 79.1516C1927.23 79.7729 1928.36 80.522 1929.58 81.473C1931.72 83.1712 1935.8 86.5993 1939 93.0822C1942.52 99.7911 1943.14 109.754 1941.1 116.24C1936.95 128.579 1932.81 130.224 1930.81 132.482C1926.46 136.104 1924.87 136.641 1923.29 137.54C1921.84 138.281 1920.79 138.742 1919.85 139.136C1918.03 139.897 1916.7 140.363 1915.48 140.784C1910.71 142.379 1907.25 143.247 1903.68 144.137C1803.06 171.919 1698.5 207.133 1595.4 239.66C1571.09 247.441 1545.61 255.586 1521.25 263.391C1474.81 278.256 1427.11 293.505 1380.66 308.339C1333.68 323.339 1287.62 338.029 1240.51 353.004C1226.24 357.542 1211.53 362.214 1196.46 366.995Z" fill="#FCAF45"/>
</svg>
