<svg width="2210" height="639" viewBox="0 0 2210 639" fill="none" xmlns="http://www.w3.org/2000/svg">
<rect width="2210" height="639" fill="transparent"/>
<path d="M1302.93 205.983C1381.72 195.519 1467.67 183.793 1547.33 176.653C1557.07 175.78 1556.68 178.631 1559.42 178.699C1567.08 178.882 1571.24 175.123 1576.68 174.779C1578.82 174.642 1580.95 174.504 1583.06 174.364C1607.36 172.735 1630.26 170.845 1654.22 169.449C1681.01 167.912 1669.29 177.772 1678.81 178.973C1697.27 181.371 1680.85 171.58 1687.69 168.385C1708.7 167.087 1729.87 166.421 1750.91 165.906C1745.81 167.391 1740.86 168.848 1735.79 170.268C1744.8 169.721 1758.17 170.352 1743.06 174.591C1746.43 175.12 1749.79 175.791 1753.31 176.295C1753.9 172.111 1770.02 170.462 1771.31 167.919C1772.61 165.366 1763.53 166.658 1763.55 166.444C1764.02 163.325 1801.49 164.588 1804.29 164.762C1811.42 165.15 1805.56 170.686 1811.58 169.925C1822.03 168.627 1814.3 158.754 1829.35 171.56C1834.7 166.711 1835.25 169.006 1842.4 168.857C1843.35 168.835 1842.45 166.292 1842.86 166.198C1853.53 163.596 1845.55 168.934 1845.62 169.191C1846.89 173.556 1858.23 170.881 1860.72 171.165C1891.41 174.683 1913.96 177.179 1946.06 177.214C1952.98 177.207 1974.09 174.726 1980.81 175.304C1987.46 175.863 1983.99 179.161 1987.49 180.602C1992.84 172.758 1998.13 171.765 2010.7 176.543C2015.22 170.822 2014.72 175.362 2023.58 174.043C2030.96 172.95 2043.71 165.949 2051.96 171.522C2042.62 171.192 2043.65 173.928 2033.18 175.813C2029.71 176.42 1993.2 177.389 1996.09 183.077C1997.55 186.029 2009.6 182.987 2010.06 183.531C2012.84 186.681 2006.23 190.785 2000.2 189.55C2001.68 188.865 2003.46 188.163 2005.04 187.476C1991.5 183.791 2001.16 198.985 1990.6 185.769C1989.29 184.149 1989.73 182.411 1987.61 180.71C1987.2 181.448 1989.78 183.182 1987.61 183.563C1985.4 183.948 1981.06 180.647 1980.5 183.548C1979.69 187.765 1988.87 185.856 1989.58 186.085C1989.59 186.059 1989.59 186.034 1989.6 186.008C1995.82 188.069 1982.98 188.667 1982.38 189.085C1978.48 191.81 1981.21 193.743 1975.34 196.075C1972 197.402 1963.31 196.95 1960.14 197.455C1956.97 197.967 1961.98 199.785 1959.86 200.282C1957.74 200.779 1955.01 199.364 1952.55 199.944C1951.49 200.199 1951.62 202.409 1951.11 202.504C1945.58 203.555 1949.06 198.823 1944 199.291C1940.8 199.593 1929.95 204.317 1937.58 205.295C1933.94 205.882 1930.45 206.35 1926.86 206.849C1929.17 207.411 1931.49 207.763 1933.75 208.448C1926.97 207.666 1924.01 211.585 1919.79 212.051C1915.61 212.516 1911.51 208.154 1906.97 210.588C1897.25 215.766 1921.78 212.432 1924.92 213.163C1926.14 213.442 1921.66 217.196 1920.97 217.329C1917.89 217.908 1914.07 215.533 1911.64 215.76C1903.03 216.587 1897.83 220.208 1889.69 221.31C1861.72 225.059 1827.2 229.18 1800.6 231.923C1790.85 232.924 1784.39 229.644 1780.07 230.091C1769.78 231.162 1768.6 234.562 1759.67 235.475C1746.06 236.872 1727.06 235.654 1715.57 236.08C1707.8 236.358 1701.03 240.188 1698.97 240.459C1670.78 244.23 1636.66 247.597 1613.19 250.107C1602.37 251.262 1596.66 248.276 1594.39 248.624C1593.09 248.823 1592.01 249.044 1591.09 249.279C1585.29 250.804 1586.6 252.944 1579.72 253.42C1575.42 253.721 1574.29 250.89 1573.7 250.838C1568.51 250.431 1567.91 254.357 1564.05 254.908C1541.48 258.121 1519.54 258.077 1497.05 260.313C1495.41 260.474 1495.35 258.77 1494.31 258.979C1489.88 259.913 1492.27 262.329 1487.61 263.069C1477.89 264.622 1467.65 265.384 1457.29 266.277C1456.25 266.367 1455.53 264.252 1453.17 264.533C1450.8 264.816 1449.26 267.087 1445.51 267.42C1435.8 268.283 1426.02 266.973 1415.66 268.103C1413.97 268.29 1412.2 271.157 1409.67 271.44C1401.74 272.324 1389.46 271.438 1382.71 272.194C1360.12 274.74 1339.41 278.888 1318.26 281.647C1313.26 282.293 1308.51 280.454 1305.89 280.737C1300.04 281.375 1304.74 283.083 1298.83 283.867C1250.42 290.269 1201.63 295.863 1152.75 303.006C1133.54 305.807 1110.51 311.553 1091.86 313.643C1084.1 314.504 1082.24 311.562 1076.78 312.344C1067.04 313.758 1065.87 318.061 1055.68 320.009C1047.56 321.557 1037.54 318.956 1029.07 320.511C1020.6 322.066 1017.29 326.583 1007.57 328.574C999.569 330.21 988.105 330.19 979.356 331.872C899.496 347.262 821.06 362.273 740.536 374.732C733.479 375.829 726.321 377.064 719.136 378.332C696.748 382.292 673.745 386.644 651.196 388.498C648.393 388.726 651.824 384.07 643.185 386.762C638.515 388.223 632.733 392.851 621.936 395.422C557.714 410.694 487.754 420.786 423.554 440.373C355.666 460.976 291.344 496.543 225.96 513.581C198.474 520.664 170.464 524.225 142.451 521.766C141.366 521.637 140.366 520.981 140.078 519.791C140.054 519.637 140.033 519.477 140.051 519.298C140.085 519.111 140.12 518.919 140.191 518.706C140.397 518.251 140.549 517.787 140.38 517.477C140.225 517.161 140.08 516.83 139.878 516.522C139.67 516.217 139.211 516.03 138.841 515.785C136.841 513.379 137.568 509.805 138.186 508.145C141.088 509.171 143.919 510.618 147.021 511.849C145.988 499.511 146.524 502.625 157.95 499.727C165.003 497.944 157.837 495.044 160.952 492.403C165.105 488.943 185.152 475.606 183.546 484.58C184.447 482.805 185.371 481.083 186.189 479.368C194.276 475.857 202.181 472.188 210.044 468.383C217.184 464.909 224.454 461.263 231.617 457.607C234.288 456.255 233.474 453.904 236.16 452.551C243.444 448.877 249.904 448.383 257.588 445.503C261.89 443.899 261.391 441.031 267.056 439.318C272.817 437.581 273.669 441.384 280.052 434.821C273.644 431.804 296.633 427.937 304.551 425.106C305.583 424.73 313.765 417.52 318.832 416.454C323.968 415.351 332.407 415.639 339.724 411.73C343.239 409.87 344.322 405.976 348.215 404.589C350.914 403.627 355.264 405.476 358.712 404.573C362.183 403.659 369.125 399.002 370.538 398.544C375.441 396.924 370.579 400.579 374 399.682C390.795 395.233 410.273 390.867 426.306 384.956C428.278 384.231 424.818 382.584 425.064 382.43C438.011 375.671 431.579 380.835 435.855 381.991C439.901 383.107 465.886 374.93 465.003 370.678C467.213 375.742 472.038 370.164 473.476 369.625C479.199 367.495 479.226 372.369 484.621 369.467C486.611 368.405 481.682 366.377 483.986 365.88C489.785 364.627 495.853 368.371 503.502 366.97C505.341 366.637 505.384 364.269 508.625 363.536C511.767 362.823 525.893 362.21 518.527 359.067C527.653 360.793 528.765 358.335 538.242 356.148C540.65 355.599 544.634 358.425 549.515 356.085C551.133 355.3 550.257 351.859 552.836 351.215C558.712 349.741 565.305 351.962 572.847 350.357C586.999 347.355 601.514 341.413 616.547 339.035C620.592 338.401 620.353 342.107 626.207 340.895C627.045 340.71 633.524 336.139 637.604 335.558C640.025 335.209 653.065 334.641 655.689 334.27C660 333.645 660.02 330.114 662.442 330.296C669.462 330.816 665.167 336.901 671.757 328.43C675.175 331.656 679.813 330.306 682.285 334.642C684.039 328.975 688.467 333.166 693.404 330.388C698.326 327.612 700.728 316.862 704.149 327.227C704.898 326.626 706.545 325.738 708.478 324.805C712.204 322.978 717.038 320.976 718.198 320.637C723.349 319.151 721.121 322.643 725.009 321.469C725.697 321.266 724.565 319.398 729.107 318.72C732.16 318.251 753.529 314.288 754.949 314.316C770.293 314.686 747.271 317.831 744.56 320.619C743.893 320.154 743.231 319.686 742.528 319.235C735.9 319.522 740.442 323.363 743.566 323.858C746.687 324.353 751.791 321.281 754.528 322.31C755.893 322.829 756.164 328.425 752.358 328.467C756.617 329.398 751.575 332.193 753.432 333.476C755.504 334.867 773.199 332.091 772.727 329.075C769.416 329.584 765.367 330.45 762.033 330.95C756.71 326.546 766.486 306.221 780.069 311.091C789.867 314.626 776.143 321.379 796.126 313.248C792.883 313.621 790.092 313.627 787.156 313.939C786.128 310.075 791.619 313.524 793.826 311.834C794.883 311.01 787.175 309.548 793.26 307.483C799.667 312.11 802.786 305.715 811.905 304.011C809.546 305.466 807.19 306.917 804.845 308.373C820.933 309.677 785.532 317.436 815.768 314.348C812.25 315.164 808.621 315.766 805.076 316.692C807.194 318.435 805.491 324.981 807.284 325.976C811.987 328.587 817.701 325.476 822.694 324.891C824.889 324.628 823.832 326.5 824.016 326.477C827.025 326.129 825.943 323.853 828.534 323.236C831.79 322.461 841.766 323.105 843.28 322.569C847.142 321.196 839.673 317.634 839.984 317.216C842.178 314.473 847.649 315.474 846.866 312.527C834.65 316.758 798.151 320.549 829.89 309.801C820.024 306.563 821.404 299.437 834.352 296.618C845.063 294.289 838.563 298.18 844.656 300.144C845.427 300.384 860.047 299.301 860.442 297.097C860.687 301.982 866.11 305.413 863.808 310.891C863.47 311.695 857.516 312.427 860.261 316.041C861.633 317.857 865.336 321.688 865.296 324.308C866.206 322.334 867.136 320.131 868.055 318.077C876.802 316.049 878.342 317.748 883.726 320.222C883.274 318.884 877.837 313.863 884.903 314.474C885.269 314.52 885.918 316.542 889.537 316.989C896.854 317.877 898.419 318.276 894.091 325.264C907.945 319.368 912.076 325.658 926.569 321.233C922.342 313.884 917.421 316.677 904.198 320.432C903.302 318.668 902.721 316.87 901.803 315.09C920.463 316.321 911.512 317.369 921.102 311.9C923.475 310.554 936.917 309.375 931.622 304.825C930.379 303.753 922.128 305.252 922.75 303.142C922.893 302.735 932.77 300.145 933.742 300.507C945.893 304.941 926.672 312.505 957.009 305.278C957.841 305.076 957.77 302.747 959.367 302.165C962.371 301.076 962.833 303.714 965.505 302.661C968.179 301.607 971.461 297.439 976.162 300.065C984.748 304.842 967.274 311.135 958.795 309.245C956.772 317.553 1014 308.703 1017.46 307.525C1032.48 302.224 1006.99 307.876 1005.31 305.921C1004.62 305.089 1003.08 293.404 997.73 301.976C996.15 304.515 1004.67 306.206 1000.06 308.191C995.436 310.176 996.808 306.451 996.421 306.267C995.095 305.634 990.182 307.706 989.443 307.324C978.075 301.558 977.272 290.261 993.377 304.6C998.689 299.955 984.227 296.145 991.16 292.471C999.594 288.005 1006.95 292.303 1008.11 292.368C1022 293.118 1005.3 287.76 1022.1 287.708C1031.45 287.684 1009.21 294.966 1030.01 291.257C1047.44 288.159 1037.58 286.901 1037.92 280.571C1038.01 279.09 1047.33 275.871 1034.36 278.49C1034.23 280.144 1033.86 282.356 1033.25 283.957C1029.87 283.278 1023.31 276.098 1021.56 276.079C1013.05 276.025 1014.1 280.114 1008.45 275.983C1012.78 280.788 1006.57 278.449 1004.61 279.91C997.313 285.306 1007.96 285.228 989.322 282.663C992.032 284.806 994.514 286.938 997.149 289.084C995.028 289.503 992.907 289.925 990.789 290.345C986.743 285.323 975.536 287.812 984.912 280.642C972.31 281.007 967.478 283.014 965.463 287.735C965.08 288.636 963.277 289.259 961.113 289.686C961.718 290.827 962.84 294.471 962.57 294.983C960.146 299.494 954.287 293.309 955.48 290.398C953.939 290.515 952.714 290.559 952.273 290.564C949.497 290.588 954.422 287.337 952.096 286.867C951.326 286.716 943.777 288.468 943.474 287.518C941.553 281.421 954.798 283.89 929.055 284.348C929.373 290.131 940.844 286.983 938.827 293.51C936.661 300.521 928.692 292.886 928.565 301.08C927.82 299.858 927.406 298.805 926.705 297.391C917.094 302.527 915.858 295.928 912.508 294.977C905.988 293.112 878.389 298.176 904.2 299.76C900.657 300.939 897.031 301.817 893.46 302.937C890.647 291.202 893.609 295.55 875.862 296.692C871.96 296.943 869.826 291.934 867.129 298.777C866.597 292.606 855.81 298.242 854.63 297.688C846.966 294.065 871.2 283.015 876.22 293.24C879.772 288.329 880.694 293.867 885.34 292.328C892.053 290.108 892.876 288.86 901.686 291.592C908.796 284.477 869.717 294.349 892.48 282.673C915.098 270.74 1054.52 244.504 1087.08 238.802C1146.03 228.052 1177.05 222.335 1230.38 215.43C1235.61 214.735 1275.26 208.883 1267.88 216.676C1266.83 217.789 1250.14 222.601 1265.45 225.907C1262.07 223.201 1270.37 220.05 1271.07 219.626C1286.7 210.025 1276.83 209.467 1302.93 205.983ZM1387.72 255.861C1353.69 258.56 1379.12 259.929 1373.35 270.914C1377.71 270.397 1382.04 269.884 1386.37 269.374C1385.15 268.882 1383.95 268.39 1382.73 267.898C1382.73 267.898 1382.72 267.899 1382.72 267.9C1384.38 263.887 1386.05 259.874 1387.72 255.861ZM1943.66 211.556C1942.4 212.946 1941.14 214.338 1939.76 215.704C1935.25 215.462 1930.77 215.234 1926.28 215.007C1926.77 214.075 1927.25 213.133 1927.75 212.202C1933 212.021 1938.39 211.85 1943.66 211.556ZM954.308 311.458C947.381 308.799 949.008 315.272 940.135 313.642C941.95 318.32 943.86 322.874 945.719 327.496C951.979 325.747 953.156 323.666 960.272 323.738C959.217 322.309 958.147 320.874 957.103 319.434C955.997 319.955 954.826 320.533 953.754 321.01C951.268 316.938 962.272 314.501 954.329 311.445C954.322 311.449 954.315 311.454 954.308 311.458ZM889.937 324.063C886.42 324.005 872.639 323.913 871.145 326.234C866.131 334.076 903.147 323.345 876.344 334.118C876.634 335.05 876.666 336.006 876.827 336.95C881.947 336.42 887.06 335.848 892.239 335.249C891.329 331.535 890.886 327.791 889.937 324.063ZM1265.12 272.084C1259.81 272.249 1235.24 278.835 1243.97 282.063C1246.51 283.009 1256.88 275.312 1261.15 275.017C1263.91 274.823 1261.29 278.627 1266.54 276.658C1266.1 275.194 1265.73 273.555 1265.11 272.096C1265.11 272.092 1265.11 272.088 1265.12 272.084ZM1272.3 251.028C1266.98 252.35 1261.59 253.848 1256.21 255.223C1260.72 258.554 1268.21 255.028 1269.39 260.409C1267.96 261.02 1266.54 261.626 1265.1 262.237C1263.8 261.2 1262.52 260.159 1261.24 259.12C1256.94 262.702 1259.98 263.788 1251.13 264.107C1257.52 271.623 1259.1 275.898 1272.89 265.597C1270.68 270.432 1275.22 284.624 1282.16 273.133C1283.46 270.998 1276.8 270.567 1276.68 270.27C1275.18 266.584 1278.46 263.669 1276.91 260.204C1276.21 258.636 1272.26 259.185 1271.37 256.998C1270.96 255.929 1274.28 252.28 1272.3 251.028ZM1285.7 268.961C1284.33 271.495 1290.79 276.227 1295.61 274.463C1303.13 271.72 1290.24 268.098 1285.7 268.961ZM1943.69 211.55C1943.68 211.552 1943.67 211.554 1943.66 211.556C1943.67 211.551 1943.67 211.546 1943.67 211.541C1943.68 211.544 1943.68 211.547 1943.69 211.55ZM907.877 323.794C904.221 326.413 898.276 327.116 899.224 330.155C897.17 329.871 895.099 329.601 893.05 329.318C893.226 330.25 893.421 331.181 893.595 332.103C899.563 331.697 905.469 331.309 911.395 330.933C910.247 328.552 909.153 326.153 907.877 323.794ZM843.875 332.478C836.44 333.458 843.368 336.599 842.107 338.924C840.845 341.248 834.009 340.742 835.296 343.534C839.625 342.887 844.204 342.201 848.571 341.546C846.868 338.561 845.506 335.456 843.86 332.481C843.865 332.48 843.87 332.479 843.875 332.478ZM1526.76 242.734C1521.63 242.38 1523.2 238.904 1513.79 243.837C1513.8 243.836 1513.81 243.835 1513.82 243.834C1523.53 245.421 1536 246.416 1546.09 242.682C1539.26 239.969 1534.87 243.277 1526.76 242.734ZM973.274 318.209C974.974 315.311 964.818 314.734 963.041 317.461C960.163 321.872 970.677 322.61 973.274 318.209ZM1727.65 199.105C1734.56 190.482 1719.35 182.801 1704.4 188.067C1703.13 188.522 1713.1 190.162 1710.35 191.979C1710.07 192.158 1704.73 192.456 1703.49 193.686C1702.26 194.917 1703.9 197.361 1701.81 198.643C1698.16 200.882 1689.04 198.211 1686.48 200.953C1686.15 201.32 1691.79 204.258 1692.13 204.359C1697.93 205.913 1702.83 200.924 1703.68 200.816C1708.03 200.259 1707.69 203.849 1708.86 204.577C1711.03 205.951 1714.66 204.05 1714.93 204.143C1721.92 206.63 1706.53 207.13 1704.65 208.591C1699.44 212.536 1704.86 215.243 1691.72 218.431C1690.51 218.728 1675.52 219.939 1694.74 222.106C1658.41 233.856 1713.9 225.002 1719.87 222.69C1722.61 221.597 1718.05 218.617 1719.62 216.95C1723.22 213.136 1729.71 211.947 1728.69 207.12C1726.53 196.969 1718.49 204.458 1712.22 203.29C1712.65 201.005 1712.7 198.81 1713.69 196.524C1712.17 199.613 1727.21 199.743 1727.65 199.125C1727.65 199.118 1727.65 199.112 1727.65 199.105ZM1634.2 219.855C1625.52 217.619 1626.85 224.019 1618.76 221.119C1612.56 227.633 1625.94 225.849 1627.48 226.024C1634.61 226.77 1635.19 233.091 1642.28 230.409C1639.4 226.926 1636.96 223.358 1634.2 219.855ZM1707.4 215.435C1702.13 219.225 1712.08 218.255 1712.52 218.848C1717.58 225.083 1687.52 226.556 1707.4 215.435ZM1230.83 263.501C1227.96 263.666 1230.19 266.545 1227.81 267.808C1225.43 269.078 1216.48 267.58 1216.96 269.494C1217.45 271.41 1233.86 274.312 1218.23 277.563C1218.91 278.583 1218.84 279.423 1219.24 280.375C1223.58 279.809 1227.96 279.261 1232.3 278.701C1229.49 275.877 1226.6 272.9 1223.9 270.171C1225.99 267.335 1227.8 270.36 1227.93 270.343C1227.93 270.339 1227.93 270.336 1227.93 270.333C1232.43 269.463 1237.27 263.127 1230.83 263.501ZM1455.81 244.796C1455.73 236.859 1450.07 246.408 1447.42 247.711C1444.77 249.009 1440.61 246.567 1442.45 249.766C1447.22 251.552 1455.83 245.68 1455.81 244.786C1455.81 244.789 1455.81 244.792 1455.81 244.796ZM1588.65 224.641C1588.59 224.666 1588.52 224.69 1588.46 224.715C1581.94 227.327 1583.17 229.196 1574.41 227.815C1574.95 229.675 1575.49 231.576 1576.03 233.407C1582.57 232.735 1581.86 227.693 1588.86 228.492C1589.17 228.525 1589.5 228.569 1589.84 228.625C1591.19 228.851 1588.86 233.547 1594.61 231.502C1592.65 229.338 1590.62 226.92 1588.65 224.641ZM1554.71 235.455C1562.7 234.278 1567.37 218.237 1553.35 226.787C1551.26 228.066 1548.66 236.348 1554.71 235.455ZM1304.98 253.242C1291.23 254.589 1307.11 255.026 1310.99 256.915C1279.34 262.955 1314.52 255.795 1318.71 263.215C1322.31 260.484 1328.92 254.452 1320.67 254.13C1317.22 253.999 1318.75 256.17 1318.55 256.186C1312.25 256.415 1312.52 252.506 1304.98 253.242ZM1648.76 218C1648.26 218.167 1649.33 220.738 1647.75 221.431C1646.17 222.121 1642.25 220.642 1642.04 222.307C1641.85 223.979 1649.44 224.496 1651.57 223.08C1653.71 221.65 1653.29 216.516 1648.76 218ZM1595.43 216.916C1588.73 219.558 1601.06 228.115 1602.52 227.916C1615.46 226.033 1595.43 220.038 1595.43 216.916ZM1334.68 232.598C1318.73 239.671 1331.98 246.702 1342.99 250.53C1344.22 249.309 1345.49 248.083 1346.7 246.875C1341.3 254.026 1331.26 261.686 1354.7 253.076C1341.31 253.255 1352.15 250.143 1352.19 249.774C1352.18 237.905 1333.24 245.83 1334.69 232.596C1334.69 232.596 1334.68 232.597 1334.68 232.598ZM1671.31 218.594C1678.56 217.843 1697 214.058 1687.84 209.771C1682.4 212.697 1676.74 215.654 1671.31 218.594ZM1064.53 270.65C1058.22 268.626 1052.82 269.487 1045.63 270.769C1052.77 274.009 1048.57 275.139 1046.53 276.504C1043.45 278.563 1051.48 277.219 1051.54 277.5C1052 281.534 1046.96 282.928 1058.64 281.075C1055.96 282.906 1053.32 284.744 1050.64 286.567C1059.57 285.407 1062.06 287.711 1068.19 290.063C1061.54 283.071 1069.5 286.879 1075.47 282.018C1078.45 279.586 1067.74 271.686 1064.5 270.653C1064.51 270.652 1064.52 270.651 1064.53 270.65ZM1317.4 233.22C1315.89 234.851 1314.58 236.961 1313.14 238.788C1311.37 239.174 1309.59 239.542 1307.81 239.929C1307.43 238.71 1307.07 237.429 1306.65 236.263C1304.24 236.208 1305.39 237.825 1304.7 238.08C1304.7 238.073 1304.7 238.066 1304.7 238.06C1294.9 241.679 1290.81 241.952 1282.4 239.136C1282.9 242.959 1283.4 246.781 1283.91 250.603C1285.63 250.005 1287.38 249.414 1289.1 248.826C1289.77 246.649 1290.45 244.469 1291.12 242.292C1293.31 243.156 1295.49 244.016 1297.68 244.882C1299.22 243.929 1301.08 242.895 1302.42 241.989C1312.01 251.605 1292.46 246.773 1292.89 251.231C1293.14 254.096 1311.86 251.526 1314.3 249.211C1314.65 248.873 1309.58 241.439 1316.96 244.698C1318.12 245.213 1320.72 262.379 1326.29 247.49C1327.08 245.378 1322.04 235.152 1317.4 233.22ZM1248.61 236.635C1260.62 246.221 1220.19 239.825 1238.17 246.618C1234.08 252.319 1234.96 252.133 1240.37 255.972C1240.85 256.317 1237.72 258.155 1238.02 258.293C1242.85 260.161 1248.1 258.118 1248.75 262.613C1249.93 262.209 1251.05 261.842 1252.24 261.438C1246.59 257.88 1254.29 253.944 1256.93 249.949C1258.13 248.137 1254.8 248.074 1255.81 246.496C1256.18 245.918 1260.88 246.343 1260.87 244.833C1260.81 241.422 1257.34 237.264 1252.14 235.44C1252.14 235.437 1252.14 235.433 1252.14 235.43C1250.95 235.814 1249.8 236.241 1248.61 236.635ZM1475.12 217.426C1477.63 223.313 1485.05 224.211 1471.55 228.818C1472.38 229.938 1473.22 231.046 1474.05 232.166C1476.37 231.786 1478.62 231.416 1480.97 231.044C1485.91 212.257 1501.32 231.02 1491.47 219.248C1490.36 217.973 1485.08 220.155 1490.07 215.765C1490.06 215.762 1490.05 215.76 1490.04 215.757C1482.6 217.792 1481.91 220.063 1475.12 217.426ZM1424.61 227.762C1408.63 242.709 1449.66 231.994 1442.33 229.433C1441.58 229.207 1424.03 234.121 1424.61 227.762ZM1564.44 200.288C1556.51 200.933 1556.81 207.913 1557.86 210.321C1558.94 212.734 1564.02 209.618 1564.83 209.928C1567.3 210.973 1562.45 212.372 1565.67 213.821C1566.76 214.284 1580.8 215.258 1581.36 214.898C1584.65 212.867 1578.97 207.697 1579.89 206.936C1581.88 205.284 1584.61 205.823 1586.39 205.466C1587.34 205.281 1588.03 204.862 1588.24 203.8C1588.86 200.762 1587.64 200.681 1585.97 201.527C1584.03 202.541 1581.46 204.906 1580.71 205.048C1576.56 205.807 1576.53 202.117 1573.3 201.728C1570.07 201.34 1568.13 202.817 1565.29 202.865C1564.35 202.881 1564.85 200.267 1564.44 200.288ZM1539.94 217.805C1547.6 211.639 1527 208.173 1524.73 209.677C1518.13 214.116 1536.38 220.733 1539.94 217.805ZM1277.18 249.733C1284.21 244.946 1266.27 244.197 1261.49 246.39C1262.64 247.84 1274.74 251.383 1277.18 249.733ZM1339.28 232.031C1332.5 234.097 1342.79 241.467 1348.51 240.604C1351.17 234.559 1348.15 236.074 1344.35 236.323C1340.55 236.57 1344.56 230.423 1339.28 232.031ZM1650.76 197.573C1649.38 197.612 1625.6 204.727 1639.73 205.249C1640.84 205.278 1657.5 202.784 1658.78 201.787C1661.21 199.777 1654.67 197.435 1650.76 197.573ZM1371.41 219.54C1368.36 224.858 1364.75 225.246 1368.83 230.529C1368.84 230.528 1368.84 230.528 1368.85 230.527C1359.79 233.439 1357.89 221.823 1355.91 222.326C1349.05 224.083 1356.7 231.556 1352.69 234.836C1362.52 230.987 1360.35 236.952 1368.15 236.333C1369.9 236.191 1376.42 231.976 1377.17 229.766C1377.93 227.554 1373.61 221.744 1371.41 219.54ZM1684.8 193.032C1676.51 191.935 1669.7 200.569 1681.2 200.728C1686.77 200.819 1689.84 193.703 1684.8 193.032ZM873.653 298.481C875.23 300.323 876.843 302.152 878.509 303.96C875.622 304.961 872.741 305.973 869.869 306.984C872.096 305.935 874.333 304.896 876.589 303.855C870.898 304.086 867.718 300.789 873.638 298.483C873.643 298.482 873.648 298.482 873.653 298.481ZM674.735 334.016C671.829 332.571 668.212 339.664 668.933 340.009C674.316 342.57 678.762 336.021 674.735 334.016ZM1263.6 232.52C1254.15 232.904 1261.91 242.048 1267.71 241.975C1263.96 240.526 1268.96 232.305 1263.6 232.52ZM744.56 320.619C745.554 321.312 746.555 322.004 747.651 322.68C744.493 322.055 743.836 321.355 744.56 320.619ZM1646.09 189.085C1644.61 188.452 1633.93 188.889 1632.56 189.994C1629.75 192.304 1638.69 196.991 1643.35 194.803C1643.87 194.565 1647.58 189.714 1646.06 189.087C1646.07 189.086 1646.08 189.086 1646.09 189.085ZM860.418 296.824C860.451 296.916 860.457 297.009 860.442 297.097C860.437 297.007 860.419 296.916 860.418 296.824ZM464.805 370.254C464.901 370.39 464.971 370.532 465.003 370.678C464.944 370.543 464.86 370.405 464.805 370.254ZM1570.46 188.385C1565.89 179.21 1558.2 185.196 1565.22 189.211C1565.61 189.419 1569.6 188.459 1570.46 188.385Z" fill="#FCAF45"/>
</svg>
